<?xml version="1.0" encoding="UTF-8" standalone="no"?>
<!-- Created with Inkscape (http://www.inkscape.org/) -->

<svg
   xmlns:dc="http://purl.org/dc/elements/1.1/"
   xmlns:cc="http://creativecommons.org/ns#"
   xmlns:rdf="http://www.w3.org/1999/02/22-rdf-syntax-ns#"
   xmlns:svg="http://www.w3.org/2000/svg"
   xmlns="http://www.w3.org/2000/svg"
   xmlns:sodipodi="http://sodipodi.sourceforge.net/DTD/sodipodi-0.dtd"
   xmlns:inkscape="http://www.inkscape.org/namespaces/inkscape"
   width="43.450699mm"
   height="61.726921mm"
   viewBox="0 0 153.95917 218.71743"
   id="svg2"
   version="1.1"
   inkscape:version="0.91 r13725"
   sodipodi:docname="boya.svg">
  <defs
     id="defs4" />
  <sodipodi:namedview
     id="base"
     pagecolor="#ffffff"
     bordercolor="#666666"
     borderopacity="1.0"
     inkscape:pageopacity="0.0"
     inkscape:pageshadow="2"
     inkscape:zoom="3.6067432"
     inkscape:cx="138.38396"
     inkscape:cy="105.86664"
     inkscape:document-units="px"
     inkscape:current-layer="layer1"
     showgrid="false"
     fit-margin-top="0"
     fit-margin-left="0"
     fit-margin-right="0"
     fit-margin-bottom="0"
     inkscape:window-width="1920"
     inkscape:window-height="1028"
     inkscape:window-x="0"
     inkscape:window-y="0"
     inkscape:window-maximized="1" />
  <metadata
     id="metadata7">
    <rdf:RDF>
      <cc:Work
         rdf:about="">
        <dc:format>image/svg+xml</dc:format>
        <dc:type
           rdf:resource="http://purl.org/dc/dcmitype/StillImage" />
        <dc:title></dc:title>
      </cc:Work>
    </rdf:RDF>
  </metadata>
  <g
     inkscape:label="Capa 1"
     inkscape:groupmode="layer"
     id="layer1"
     transform="translate(-63.691388,-60.223016)">
    <path
       style="opacity:1;fill:#fc5520;fill-opacity:1;stroke:none;stroke-width:0.89937502;stroke-linecap:round;stroke-linejoin:round;stroke-miterlimit:4;stroke-dasharray:none;stroke-dashoffset:0"
       d="m 116.13685,104.99011 0.0498,9.42064 0.0494,9.42064 0.7173,0.0594 c 0.52296,0.0433 0.71731,0.1469 0.71731,0.38293 0,0.47554 -24.996541,75.38346 -25.26194,75.70324 -0.0153,0.0186 -0.05006,0.0355 -0.09526,0.0514 l -28.600042,0 a 76.961893,78.461936 0 0 0 -0.02203,0.45018 76.961893,78.461936 0 0 0 76.961882,78.4619 76.961893,78.461936 0 0 0 76.01968,-66.61697 c 0.13159,-0.81404 0.25043,-1.62739 0.35268,-2.43885 0.0982,-0.77967 0.19891,-1.84256 0.29104,-2.96861 a 76.961893,78.461936 0 0 0 0.14009,-1.87994 c 0.15815,-2.31993 0.24902,-4.45034 0.15692,-4.59937 a 76.961893,78.461936 0 0 0 -0.0142,-0.40834 l -27.13553,0 c -0.0439,-0.016 -0.0777,-0.0331 -0.093,-0.0514 -0.2654,-0.31978 -25.26232,-75.2277 -25.26232,-75.70324 0,-0.23603 0.19435,-0.33966 0.71731,-0.38293 l 0.71731,-0.0594 0.0497,-9.42064 0.0497,-9.42064 -25.25298,0 -25.2526,0 z m 14.85986,19.03256 10.39275,0 10.39312,0 12.61079,37.83238 c 6.93592,20.80778 12.56242,37.95862 12.5032,38.11296 -0.008,0.022 -0.0709,0.0417 -0.16626,0.0605 l -70.68134,0 c -0.0953,-0.0189 -0.15777,-0.0385 -0.16625,-0.0605 -0.0592,-0.15434 5.56728,-17.30518 12.5032,-38.11296 l 12.61079,-37.83238 z"
       id="path6197"
       inkscape:connector-curvature="0" />
    <path
       style="fill:#ffe680"
       d="m 141.2516,60.223008 c -1.71369,1.7e-5 -3.4944,0.256395 -4.79177,0.736734 -3.88706,1.439143 -6.73972,4.407638 -8.12201,8.451898 -0.41388,1.210907 -0.42764,1.522741 -0.5249,11.955134 l -0.10013,10.711793 -9.0859,0.09564 -9.08589,0.09564 -0.0288,3.655653 63.75484,0 -0.0292,-3.655653 -9.37281,-0.09564 -9.37283,-0.09564 -0.1117,-10.520509 c -0.12251,-11.514244 -0.10984,-11.382556 -1.333,-13.94305 -1.69384,-3.545777 -5.09495,-6.260898 -8.90283,-7.108072 -0.86114,-0.191582 -1.86493,-0.283944 -2.89314,-0.283928 z"
       id="path6153"
       inkscape:connector-curvature="0" />
    <path
       style="fill:#fc8964"
       d="m 141.31661,60.626491 c -1.69157,0.01547 -3.5533,0.207516 -4.51792,0.52416 -3.6941,1.212601 -6.80494,4.363111 -8.06336,8.165347 -0.43693,1.32019 -0.44486,1.490607 -0.54172,12.146418 l -0.0983,10.807433 -9.18153,0.09564 -9.18154,0.09564 0,6.12103 0,6.121021 2.89799,0.0527 c 1.53098,0.0279 2.38985,0.0799 2.80722,0.17597 l 51.90394,0 c 0.41735,-0.0961 1.27653,-0.14813 2.80759,-0.17597 l 2.89762,-0.0527 0,-6.121021 0,-6.12103 -9.46846,-0.09564 -9.46847,-0.09564 -0.0994,-10.711791 -0.0998,-10.711802 -0.52303,-1.555288 c -1.44635,-4.300549 -5.17995,-7.658294 -9.44008,-8.490011 -0.66203,-0.129242 -1.61593,-0.183733 -2.63087,-0.174466 z m 0.0728,12.582024 c 0.63758,0 1.27522,0.103903 1.9016,0.311954 1.23841,0.411332 3.09105,2.083371 3.80287,3.432243 l 0.51219,0.97098 0,7.077438 0,7.077437 -6.17371,0.05046 c -5.06245,0.0414 -6.19162,0.0033 -6.27345,-0.209582 -0.0549,-0.143029 -0.0743,-3.35055 -0.0428,-7.127878 l 0.0568,-6.867847 0.51257,-0.97098 c 0.71182,-1.348873 2.56445,-3.020912 3.80285,-3.432243 0.62638,-0.208051 1.26366,-0.311954 1.90124,-0.311954 z"
       id="path6149"
       inkscape:connector-curvature="0" />
    <path
       style="fill:#ffcc00"
       d="m 141.31661,60.626491 c -1.69157,0.01547 -3.5533,0.207516 -4.51792,0.52416 -3.6937,1.212471 -6.80294,4.361045 -8.06411,8.165347 -0.44009,1.327545 -0.44465,1.430947 -0.50136,12.103081 l -0.0572,10.764097 3.40273,-0.05233 3.40273,-0.05234 0.0957,-7.077438 0.0956,-7.077437 0.51258,-0.970981 c 0.71182,-1.348873 2.56446,-3.020911 3.80285,-3.432243 1.25278,-0.416101 2.55008,-0.416101 3.80285,0 1.2384,0.411332 3.09105,2.08337 3.80286,3.432243 l 0.51219,0.970981 0.0957,7.077437 0.0956,7.077438 3.06053,0 3.0605,0 -0.003,-10.616152 -0.003,-10.61616 -0.52454,-1.555288 c -1.45171,-4.304049 -5.18216,-7.658439 -9.44155,-8.490011 -0.66203,-0.129242 -1.61595,-0.183733 -2.63087,-0.174467 z"
       id="path6147"
       inkscape:connector-curvature="0" />
    <path
       inkscape:connector-curvature="0"
       id="path6141"
       d="m 92.81893,199.72511 c 0.0079,-0.18551 5.6678,-17.25143 12.57682,-37.92423 l 12.56182,-37.58694 6.36013,-0.0504 c 3.49807,-0.0277 6.36012,0.0155 6.36012,0.096 0,0.0806 -5.66672,17.14643 -12.59273,37.92425 l -12.59274,37.77785 -6.344187,0.0504 c -5.956857,0.0473 -6.34327,0.0298 -6.329233,-0.28692 z m 84.42913,0.0931 c -0.32205,-0.85002 -25.14665,-75.44085 -25.14665,-75.55845 0,-0.0807 2.86207,-0.12391 6.36014,-0.0962 l 6.36013,0.0504 12.56184,37.58694 c 6.909,20.6728 12.56857,37.73756 12.57679,37.92165 0.0138,0.31236 -0.40774,0.33475 -6.30335,0.33475 -4.87882,0 -6.33894,-0.0545 -6.4089,-0.2391 z"
       style="fill:#666666;stroke:#666666" />
  </g>
</svg>
