<?xml version="1.0" encoding="UTF-8" standalone="no"?>
<!-- Created with sK1/UniConvertor (http://sk1project.org/) -->

<svg
   xmlns:dc="http://purl.org/dc/elements/1.1/"
   xmlns:cc="http://creativecommons.org/ns#"
   xmlns:rdf="http://www.w3.org/1999/02/22-rdf-syntax-ns#"
   xmlns:svg="http://www.w3.org/2000/svg"
   xmlns="http://www.w3.org/2000/svg"
   xmlns:sodipodi="http://sodipodi.sourceforge.net/DTD/sodipodi-0.dtd"
   xmlns:inkscape="http://www.inkscape.org/namespaces/inkscape"
   width="3.8722084in"
   height="4.1517701in"
   viewBox="0 0 278.799 298.92744"
   id="svg3141"
   version="1.1"
   inkscape:version="0.91 r13725"
   sodipodi:docname="escudo.svg"
   style="fill-rule:evenodd">
  <metadata
     id="metadata3161">
    <rdf:RDF>
      <cc:Work
         rdf:about="">
        <dc:format>image/svg+xml</dc:format>
        <dc:type
           rdf:resource="http://purl.org/dc/dcmitype/StillImage" />
        <dc:title></dc:title>
      </cc:Work>
    </rdf:RDF>
  </metadata>
  <sodipodi:namedview
     pagecolor="#ffffff"
     bordercolor="#666666"
     borderopacity="1"
     objecttolerance="10"
     gridtolerance="10"
     guidetolerance="10"
     inkscape:pageopacity="0"
     inkscape:pageshadow="2"
     inkscape:window-width="1920"
     inkscape:window-height="1028"
     id="namedview3159"
     showgrid="false"
     inkscape:zoom="1.3916772"
     inkscape:cx="241.81691"
     inkscape:cy="167.07964"
     inkscape:window-x="0"
     inkscape:window-y="0"
     inkscape:window-maximized="1"
     inkscape:current-layer="svg3141"
     units="in"
     fit-margin-top="0"
     fit-margin-left="0"
     fit-margin-right="0"
     fit-margin-bottom="0" />
  <defs
     id="defs3143">
    <marker
       id="ArrowEnd"
       viewBox="0 0 10 10"
       refX="0"
       refY="5"
       markerUnits="strokeWidth"
       markerWidth="4"
       markerHeight="3"
       orient="auto">
      <path
         d="M 0,0 10,5 0,10 Z"
         id="path3146"
         inkscape:connector-curvature="0" />
    </marker>
    <marker
       id="ArrowStart"
       viewBox="0 0 10 10"
       refX="10"
       refY="5"
       markerUnits="strokeWidth"
       markerWidth="4"
       markerHeight="3"
       orient="auto">
      <path
         d="M 10,0 0,5 10,10 Z"
         id="path3149"
         inkscape:connector-curvature="0" />
    </marker>
    <clipPath
       id="clipPath16"
       clipPathUnits="userSpaceOnUse">
      <path
         id="path18"
         d="m 0,88.853 283.46,0 L 283.46,0 0,0 0,88.853 Z"
         inkscape:connector-curvature="0" />
    </clipPath>
    <clipPath
       id="clipPath26"
       clipPathUnits="userSpaceOnUse">
      <path
         id="path28"
         d="m -290.285,90.9917 580.57,0 0,-181.9839 -580.57,0 0,181.9839 z"
         inkscape:connector-curvature="0" />
    </clipPath>
  </defs>
  <g
     id="g3157"
     transform="translate(-79.066327,-173.71784)" />
  <path
     style="fill:#3771c8;stroke:#000000;stroke-width:3.48000002;stroke-miterlimit:4;stroke-dasharray:none"
     d="M 131.50057,288.71937 C 88.858337,264.10182 55.315777,230.92218 36.385117,194.63306 c -5.58782,-10.71156 -9.89698,-21.40102 -12.36706,-30.67815 -4.04025,-15.17439 -4.00035,-14.52724 -4.32306,-70.11259 L 19.394727,42.12297 79.383097,24.00921 139.37148,5.8954504 199.38788,24.0136 l 60.01639,18.11815 -0.30026,51.71496 c -0.24587,42.34771 -0.4981,52.75551 -1.39256,57.45964 -8.95801,47.11239 -42.36284,92.58337 -92.81995,126.34744 -8.51834,5.70016 -24.8306,15.53776 -25.61237,15.44631 -0.13127,-0.0154 -3.63162,-1.98668 -7.77856,-4.38073 z"
     id="path4442"
     inkscape:connector-curvature="0" />
  <path
     style="fill:#ffe680;stroke:#000000;stroke-width:2.44;stroke-miterlimit:4;stroke-dasharray:none"
     d="m 90.099793,157.85336 -0.091,-52.52932 -1.687884,-0.24144 c -2.232786,-0.31937 -5.116035,-1.92522 -6.425746,-3.57886 -2.289609,-2.890873 -2.281846,-2.835523 -2.411614,-17.202082 -0.132559,-14.674918 -0.04773,-15.369902 2.047242,-16.779705 1.171404,-0.788279 1.512695,-0.821343 8.478002,-0.821343 6.963223,0 7.306949,0.03327 8.478001,0.82065 1.601206,1.076596 2.073496,2.570755 2.098276,6.638132 0.0199,3.269731 0.0416,3.351139 1.23704,4.655639 1.14433,1.248683 1.36689,1.336202 3.73885,1.470223 2.92233,0.165129 4.64719,-0.302296 5.85338,-1.586225 0.77229,-0.822077 0.87636,-1.32635 1.05422,-5.108248 0.3174,-6.749308 0.53348,-6.890171 10.56943,-6.890171 5.6061,0 7.27459,0.11208 8.11155,0.544888 1.66207,0.859493 2.1434,2.20483 2.14402,5.992769 8.3e-4,5.467096 1.41249,7.111021 6.10594,7.111021 4.69344,0 6.10501,-1.643925 6.10593,-7.111021 7.2e-4,-3.787939 0.48195,-5.133276 2.14403,-5.992769 0.83695,-0.432808 2.50545,-0.544888 8.11155,-0.544888 10.03595,0 10.25203,0.140863 10.56943,6.890171 0.17785,3.781898 0.28192,4.286171 1.05422,5.108248 1.23042,1.309719 2.96913,1.769126 5.90151,1.559312 2.35035,-0.168168 2.62028,-0.275259 3.72084,-1.476169 1.15989,-1.26567 1.1871,-1.369879 1.20692,-4.62278 0.0248,-4.067377 0.49707,-5.561536 2.09827,-6.638132 1.17105,-0.787378 1.51478,-0.82065 8.478,-0.82065 6.96531,0 7.3066,0.03307 8.47801,0.821343 2.095,1.409803 2.17979,2.104787 2.04724,16.779705 -0.12978,14.366559 -0.12201,14.311209 -2.41162,17.202082 -1.30971,1.65364 -4.19296,3.25949 -6.42574,3.57886 l -1.68789,0.24144 -0.091,52.52932 -0.091,52.52931 -19.01061,0 -19.01061,0 -0.11587,-9.60873 -0.11587,-9.60874 -0.99851,-2.0333 c -1.969,-4.00953 -5.4889,-6.20866 -9.95724,-6.22099 -2.22828,-0.006 -3.04556,0.1652 -4.72734,0.99108 -2.3415,1.14986 -4.35871,3.21958 -5.46068,5.60281 -0.71267,1.5413 -0.77605,2.34962 -0.8836,11.26914 l -0.11587,9.60873 -19.01061,0 -19.01061,0 -0.091,-52.52931 z m 35.470307,4.57542 c 0,-6.04392 -0.0103,-6.12404 -1.00767,-7.82075 -0.55422,-0.94285 -1.6739,-2.15516 -2.4882,-2.69403 -1.28803,-0.85238 -1.83765,-0.97978 -4.22704,-0.97978 -2.38939,0 -2.93901,0.1274 -4.22703,0.97978 -0.8143,0.53887 -1.93399,1.75118 -2.48821,2.69403 -0.97048,1.651 -1.01216,1.9237 -1.12934,7.38886 -0.0669,3.12102 -0.0303,5.91258 0.0813,6.20346 0.17156,0.44704 1.38516,0.51386 7.84458,0.4319 l 7.64163,-0.097 0,-6.10649 z m 43.10462,0 c 0,-6.04392 -0.0103,-6.12404 -1.00768,-7.82075 -0.55421,-0.94285 -1.6739,-2.15516 -2.4882,-2.69403 -1.28802,-0.85238 -1.83765,-0.97978 -4.22703,-0.97978 -2.38939,0 -2.93901,0.1274 -4.22704,0.97978 -0.8143,0.53887 -1.93399,1.75118 -2.48821,2.69403 -0.97047,1.651 -1.01215,1.9237 -1.12933,7.38886 -0.0669,3.12102 -0.0304,5.91258 0.0813,6.20346 0.17155,0.44704 1.38515,0.51386 7.84458,0.4319 l 7.64163,-0.097 0,-6.10649 z M 125.7477,124.80205 c -0.002,-6.36869 -0.28791,-7.69446 -2.08733,-9.6903 -3.33835,-3.70275 -8.28801,-3.70275 -11.62635,0 -1.79944,1.99584 -2.08501,3.32161 -2.08734,9.6903 l -0.002,5.47788 7.90252,0 7.90251,0 -0.002,-5.47788 z m 43.10461,0 c -0.002,-6.36869 -0.2879,-7.69446 -2.08733,-9.6903 -3.33834,-3.70275 -8.288,-3.70275 -11.62635,0 -1.79943,1.99584 -2.08501,3.32161 -2.08734,9.6903 l -0.002,5.47788 7.90251,0 7.90251,0 -0.002,-5.47788 z"
     id="path4438"
     inkscape:connector-curvature="0" />
</svg>
