<svg 
	xmlns="http://www.w3.org/2000/svg" 
	width="76.76" 
	height="100" 
	viewBox="0 0 71.962 93.75">
	<path d="M6.932 26.384c13.408-4.955 28.145-8.237 42.361-4.973 5.617 1.15 11.103 2.878 16.44 4.96l2.349-5.655c-13.283-5.224-27.863-8.464-42.114-5.81-7.349 1.188-14.533 3.268-21.504 5.863z" fill="#f60" stroke="#f60" stroke-width=".232" stroke-linecap="round" stroke-linejoin="round"/>
	<path d="M71.813 11.731l-3.731 8.985c-13.282-5.224-27.863-8.464-42.115-5.81-7.348 1.188-14.532 3.268-21.503 5.863C3.06 17.351 1.31 14.045.128 10.554c2.194-3.336 7.397-3.966 10.949-5.888C28.005-1.585 47.52-1.627 64.029 5.989c2.26 1.822 8.323 2.002 7.784 5.742z" fill="#f60" stroke="#f60" stroke-width=".232"/>
	<path d="M36.238 93.054L6.932 26.384c13.409-4.956 28.145-8.237 42.36-4.973 5.617 1.15 11.104 2.878 16.441 4.96L38.045 93.036c-.28.79-1.511.8-1.807.018" fill="#f60" stroke="#f60" stroke-width=".232"/>
</svg>