<?xml version="1.0" encoding="UTF-8" standalone="no"?>
<!-- Created with sK1/UniConvertor (http://sk1project.org/) -->

<svg
   xmlns:dc="http://purl.org/dc/elements/1.1/"
   xmlns:cc="http://creativecommons.org/ns#"
   xmlns:rdf="http://www.w3.org/1999/02/22-rdf-syntax-ns#"
   xmlns:svg="http://www.w3.org/2000/svg"
   xmlns="http://www.w3.org/2000/svg"
   xmlns:sodipodi="http://sodipodi.sourceforge.net/DTD/sodipodi-0.dtd"
   xmlns:inkscape="http://www.inkscape.org/namespaces/inkscape"
   width="3.8722084in"
   height="4.1517701in"
   viewBox="0 0 278.799 298.92744"
   id="svg3141"
   version="1.1"
   inkscape:version="0.91 r13725"
   sodipodi:docname="lis.svg"
   style="fill-rule:evenodd">
  <metadata
     id="metadata3161">
    <rdf:RDF>
      <cc:Work
         rdf:about="">
        <dc:format>image/svg+xml</dc:format>
        <dc:type
           rdf:resource="http://purl.org/dc/dcmitype/StillImage" />
        <dc:title></dc:title>
      </cc:Work>
    </rdf:RDF>
  </metadata>
  <sodipodi:namedview
     pagecolor="#ffffff"
     bordercolor="#666666"
     borderopacity="1"
     objecttolerance="10"
     gridtolerance="10"
     guidetolerance="10"
     inkscape:pageopacity="0"
     inkscape:pageshadow="2"
     inkscape:window-width="1920"
     inkscape:window-height="1028"
     id="namedview3159"
     showgrid="false"
     inkscape:zoom="1.3916772"
     inkscape:cx="241.81691"
     inkscape:cy="167.07964"
     inkscape:window-x="0"
     inkscape:window-y="0"
     inkscape:window-maximized="1"
     inkscape:current-layer="svg3141"
     units="in"
     fit-margin-top="0"
     fit-margin-left="0"
     fit-margin-right="0"
     fit-margin-bottom="0" />
  <defs
     id="defs3143">
    <marker
       id="ArrowEnd"
       viewBox="0 0 10 10"
       refX="0"
       refY="5"
       markerUnits="strokeWidth"
       markerWidth="4"
       markerHeight="3"
       orient="auto">
      <path
         d="M 0,0 10,5 0,10 Z"
         id="path3146"
         inkscape:connector-curvature="0" />
    </marker>
    <marker
       id="ArrowStart"
       viewBox="0 0 10 10"
       refX="10"
       refY="5"
       markerUnits="strokeWidth"
       markerWidth="4"
       markerHeight="3"
       orient="auto">
      <path
         d="M 10,0 0,5 10,10 Z"
         id="path3149"
         inkscape:connector-curvature="0" />
    </marker>
    <clipPath
       id="clipPath16"
       clipPathUnits="userSpaceOnUse">
      <path
         id="path18"
         d="m 0,88.853 283.46,0 L 283.46,0 0,0 0,88.853 Z"
         inkscape:connector-curvature="0" />
    </clipPath>
    <clipPath
       id="clipPath26"
       clipPathUnits="userSpaceOnUse">
      <path
         id="path28"
         d="m -290.285,90.9917 580.57,0 0,-181.9839 -580.57,0 0,181.9839 z"
         inkscape:connector-curvature="0" />
    </clipPath>
  </defs>
  <g
     id="g3157"
     transform="translate(-79.066327,-173.71784)" />
  <path
     style="fill:#000000"
     d="m 131.4586,290.66616 c -11.70083,-16.98572 -16.54745,-21.93695 -27.54164,-28.13609 -9.268737,-5.22623 -8.731537,-4.83134 -8.465507,-6.223 0.20444,-1.06948 0.50708,-1.24681 2.12785,-1.24681 1.03924,0 3.253627,-0.42455 4.920857,-0.94346 11.04762,-3.4384 18.61862,-15.28959 22.21818,-34.779 1.474,-7.98079 1.45881,-7.60213 0.30496,-7.60213 -0.75022,0 -0.98736,0.51012 -1.24121,2.66993 -1.0328,8.78752 -6.22082,21.39527 -11.39797,27.69893 -4.95306,6.03082 -11.04896,10.05961 -17.793557,11.75981 -4.5435,1.14534 -13.61383,0.76589 -17.49392,-0.73185 -6.01383,-2.32138 -10.78901,-6.92453 -12.98142,-12.51376 -1.55076,-3.95343 -1.53261,-10.86262 0.0419,-15.93548 l 1.1592,-3.73488 1.06065,1.46156 c 4.8142,6.6339 10.40712,9.76038 18.82471,10.52317 9.01053,0.81651 14.10995,-2.84108 17.056267,-12.23372 0.64436,-2.05419 1.32983,-4.91137 1.52326,-6.3493 l 0.35168,-2.61441 -2.9179,0 c -3.786217,0 -6.013077,-1.18533 -7.496317,-3.99016 -1.37682,-2.60361 -1.42483,-5.02918 -0.15492,-7.82667 1.26005,-2.77575 3.48283,-4.11438 6.835907,-4.11679 1.42176,-0.001 2.70984,-0.20382 2.8624,-0.45066 0.47912,-0.77525 -1.72026,-7.08935 -4.041717,-11.60318 -7.85796,-15.2789 -22.53212,-25.50635 -37.56048,-26.17851 -4.95395,-0.22157 -5.46821,-0.15158 -8.33341,1.13425 -7.10577,3.18888 -11.94418,12.04468 -10.58822,19.37976 1.14001,6.16683 4.00802,8.6017 10.73078,9.11014 l 3.59379,0.2718 -3.02933,2.81513 c -7.87981,7.32265 -15.25821,10.51124 -24.26552,10.48638 C 17.248018,200.73266 6.8172987,192.43907 2.1925437,178.84172 0.16727773,170.29319 -0.90212727,164.14376 0.97354873,152.2266 l 1.62018897,-3.98387 c 5.100683,-12.54203 15.5674203,-20.92969 31.1932553,-24.99715 6.40196,-1.66644 16.75296,-2.09919 23.22207,-0.97084 30.65641,5.3471 59.978287,35.65321 66.274837,68.49941 0.84796,4.42343 0.9003,4.52805 2.26541,4.52805 1.37363,0 1.3974,-0.0501 1.3974,-2.9441 0,-9.04373 -3.81777,-20.17832 -16.86772,-49.195 C 96.280823,112.48273 91.204023,97.456705 88.786543,80.142815 c -1.08618,-7.77923 -0.73644,-17.77459 0.78847,-22.53315 2.53413,-7.90795 7.33608,-16.2003 14.851237,-25.64616 4.74577,-5.96499 18.92304,-20.17726 26.74447,-26.8104905 8.29081,-7.03131 7.9004,-7.05644 17.02301,1.09581 13.69833,12.2412705 26.14556,25.8606405 32.60473,35.6751305 7.6673,11.65019 10.32756,20.30141 9.69338,31.52301 -1.10227,19.50401 -6.6701,36.732605 -23.66575,73.229155 -11.46813,24.6267 -14.79568,34.08312 -15.76766,44.80931 l -0.35209,3.88545 1.92746,-0.15884 1.92747,-0.15883 0.65745,-3.98387 c 0.92043,-5.57742 4.13311,-14.89695 7.35792,-21.34425 5.03013,-10.05667 11.12691,-18.23587 19.72492,-26.4622 14.04413,-13.437 29.73232,-20.81156 45.78396,-21.5217 21.90701,-0.96919 40.76719,9.27784 47.68563,25.90834 5.48732,13.1904 3.3525,30.84484 -5.07686,41.98421 -5.60583,7.4081 -13.0644,11.14628 -22.23952,11.14628 -8.74796,0 -16.57573,-3.45144 -24.26457,-10.6988 l -2.87555,-2.71044 2.52403,-0.0182 c 6.00106,-0.0432 10.43471,-2.91785 11.69717,-7.58419 1.99423,-7.37118 -2.5152,-17.21243 -9.56743,-20.87969 -3.23229,-1.68083 -10.31466,-1.89779 -15.90621,-0.48726 -14.94532,3.77013 -28.33143,16.5303 -33.60419,32.03285 -1.77034,5.20503 -1.72662,5.36587 1.45839,5.36587 4.79017,0 7.79007,3.18316 7.79162,8.26759 0.002,4.68819 -3.23747,7.66561 -8.34045,7.66712 l -2.61442,7.8e-4 0.007,1.61844 c 0.0211,4.63324 2.80078,12.0168 5.75506,15.28684 3.56245,3.9432 8.21672,5.21111 14.87371,4.05184 7.16636,-1.24797 12.11085,-4.00094 15.53153,-8.64761 l 2.16588,-2.94215 0.54233,1.41662 c 2.32927,6.08438 2.5246,13.47581 0.49521,18.73878 -2.1308,5.52596 -8.05605,10.48862 -14.93576,12.50937 -3.44388,1.01156 -11.7607,1.04098 -15.47161,0.0547 -9.37866,-2.49257 -17.82909,-9.98518 -23.03555,-20.42457 -2.99777,-6.01076 -4.83449,-11.98034 -6.09049,-19.79485 -0.25475,-1.58497 -0.49013,-1.86744 -1.5561,-1.86744 -0.95807,0 -1.19748,0.20669 -1.00942,0.87147 0.13559,0.47931 0.39234,2.10398 0.57057,3.61038 0.59771,5.05196 2.8147,14.15218 4.54945,18.6744 4.67141,12.17761 11.72222,19.05672 21.34712,20.82727 2.89908,0.5333 3.50692,0.81446 3.63365,1.68073 0.12837,0.87742 -0.89734,1.58531 -6.55083,4.52104 -14.33304,7.44283 -17.42164,10.50246 -28.9909,28.71893 l -5.07695,7.99396 -2.17894,0.14681 -2.17894,0.14682 -5.69091,-8.26132 z"
     id="path4393"
     inkscape:connector-curvature="0"
     sodipodi:nodetypes="csssssssssssscsssscsssccssssscssccsssssssssssssssscccssssssssccssssscsccssscssssssssssssssccccc" />
  <path
     style="fill:#5f5fd3"
     d="m 142.1607,292.78254 c 13.02722,-20.73622 17.29252,-25.3009 29.6423,-31.72286 l 5.47055,-2.84473 -2.13169,-0.62942 c -6.05954,-1.7892 -12.7232,-7.16554 -16.23983,-13.10251 -3.8512,-6.50184 -6.71193,-15.04789 -8.29477,-24.77961 -0.42321,-2.60197 -0.88804,-5.45915 -1.03296,-6.3493 l -0.26349,-1.61844 -10.35364,0 -10.35364,0 -0.86775,5.32563 c -2.54397,15.61309 -7.23251,26.51664 -14.3348,33.33661 -3.39048,3.25571 -6.01779,4.82521 -10.35754,6.1874 l -2.73891,0.8597 1.6701,0.92406 c 5.00161,2.76735 11.03055,6.72861 13.93895,9.15847 4.52331,3.77903 8.38835,8.49363 16.40171,20.00689 3.75759,5.39875 6.85888,9.82458 6.89176,9.83518 0.0329,0.0106 1.36202,-2.05358 2.95365,-4.58707 z"
     id="path4391"
     inkscape:connector-curvature="0" />
  <path
     style="fill:#5f5fd3"
     d="m 94.232463,251.32953 c 9.984287,-2.60058 18.639837,-11.27712 23.296977,-23.3535 1.73399,-4.49638 3.25086,-10.08256 3.74089,-13.77661 l 0.32683,-2.46375 -7.53392,0 c -7.25376,0 -7.53391,0.0378 -7.53391,1.01696 0,2.5408 -1.69742,9.01471 -3.21025,12.2438 -3.2524,6.94212 -7.708857,10.14387 -14.648107,10.52396 -7.25003,0.39711 -15.83598,-2.47835 -20.32588,-6.80717 l -2.08041,-2.00578 -0.26798,1.35333 c -0.78212,3.9497 -0.82791,5.17613 -0.30163,8.07841 1.3889,7.65931 6.44902,12.9922 14.44111,15.21958 3.14204,0.87568 10.68213,0.86005 14.09628,-0.0292 z"
     id="path4389"
     inkscape:connector-curvature="0" />
  <path
     style="fill:#5f5fd3"
     d="m 198.38994,251.30903 c 10.27869,-2.67725 15.83442,-11.05845 14.48576,-21.85276 l -0.3506,-2.8061 -2.50701,2.25402 c -6.6711,5.99789 -19.54599,8.5265 -26.52924,5.21029 -6.19389,-2.94138 -9.06659,-8.23763 -11.53057,-21.25833 -0.20869,-1.10274 -0.33019,-1.12046 -7.68179,-1.12046 l -7.46976,0 0.23835,1.12046 c 0.13109,0.61625 0.57953,2.86173 0.99653,4.98994 3.32042,16.94634 13.47582,30.03799 25.95797,33.46323 3.38753,0.92958 10.82091,0.92942 14.39036,-3.1e-4 z"
     id="path4387"
     inkscape:connector-curvature="0" />
  <path
     style="fill:#212178"
     d="m 182.01712,207.59957 c 2.31749,-2.6945 1.00915,-8.29072 -2.14422,-9.17157 -1.7654,-0.49313 -79.62268,-0.51152 -81.374697,-0.0192 -1.90664,0.53576 -3.11361,2.68636 -3.11493,5.5502 -0.001,2.11226 0.21013,2.62069 1.60594,3.86784 l 1.60705,1.43591 41.109567,-0.13297 41.10957,-0.13297 1.20172,-1.39722 z"
     id="path4385"
     inkscape:connector-curvature="0" />
  <path
     style="fill:#5f5fd3"
     d="m 38.051553,197.0936 c 3.60562,-1.145 9.12599,-4.11844 11.65367,-6.27703 1.38908,-1.18624 1.42812,-1.13034 -1.34647,-1.92762 -5.93085,-1.70424 -9.57845,-9.32605 -8.05648,-16.83439 0.9504,-4.68861 3.24374,-8.78509 6.75922,-12.07365 4.25721,-3.9824 7.33191,-5.12715 13.65332,-5.08326 19.2293,0.1335 39.04056,16.67313 44.608187,37.2416 l 0.85617,3.16295 7.68861,0 7.68861,0 -0.34859,-2.11643 c -5.3558,-32.51705 -34.713407,-63.43269 -64.970497,-68.41853 -9.13642,-1.50552 -21.31546,-0.10777 -29.38539,3.37248 -6.213952,2.67984 -9.271947,4.71268 -13.751742,9.14166 -3.8628073,3.81899 -4.8845603,5.19237 -6.8582463,9.2184 -2.820172,5.75275 -3.771204,10.03002 -3.782575,17.01214 -0.02324,14.27237 5.640068,25.96717 15.3281103,31.65273 5.681763,3.33442 13.495883,4.07825 20.264093,1.92895 z"
     id="path4383"
     inkscape:connector-curvature="0" />
  <path
     style="fill:#5f5fd3"
     d="m 259.09887,195.88845 c 7.57426,-3.7532 13.22666,-11.2119 15.84036,-20.90238 1.40244,-5.19962 1.54014,-16.26865 0.26145,-21.01653 -1.24262,-4.61401 -4.29987,-10.73401 -7.02698,-14.06666 -9.67926,-11.82847 -28.97946,-18.08258 -46.41819,-15.04152 -22.90604,3.99448 -46.14483,23.19172 -57.67396,47.64365 -3.67745,7.79944 -6.71779,17.57007 -6.74922,21.6897 l -0.009,1.13343 7.54372,-0.13746 7.54371,-0.13747 0.94451,-3.48589 c 2.87581,-10.61372 11.27243,-22.15121 20.85864,-28.66108 11.29515,-7.67038 24.87567,-10.22712 32.8525,-6.18495 7.35792,3.72854 11.87761,11.81264 11.32417,20.25485 -0.41833,6.3811 -3.04911,10.05382 -8.53091,11.90959 l -2.43106,0.82299 2.66964,1.99568 c 6.51643,4.87131 11.89781,6.64689 19.46371,6.42203 5.12063,-0.15219 5.51316,-0.24431 9.53656,-2.23798 z"
     id="path4381"
     inkscape:connector-curvature="0" />
  <path
     style="fill:#5f5fd3"
     d="m 148.55218,191.28049 c 0.91895,-11.01908 4.05024,-19.94584 16.23202,-46.27466 11.32269,-24.47204 16.1347,-36.60514 19.4356,-49.005255 3.31244,-12.44348 4.66107,-25.87913 3.29275,-32.80372 -2.08682,-10.56061 -9.25268,-22.39909 -22.07066,-36.46218 -8.21789,-9.01616 -25.17571,-24.7788105 -26.38428,-24.5247505 -1.25157,0.26311 -12.7326,10.4483205 -20.34357,18.0474705 -15.40405,15.38013 -24.230007,28.41487 -27.206817,40.18079 -2.05401,8.11852 -0.46267,23.49463 4.01074,38.75314 3.48673,11.893055 7.195147,21.324365 16.741627,42.577615 13.48946,30.03147 17.177,40.84084 17.177,50.35138 l 0,3.18188 9.39009,0 9.3901,0 0.3354,-4.02171 z"
     id="path4377"
     inkscape:connector-curvature="0" />
</svg>
