<?xml version="1.0" encoding="UTF-8" standalone="no"?>
<svg
   xmlns:dc="http://purl.org/dc/elements/1.1/"
   xmlns:cc="http://creativecommons.org/ns#"
   xmlns:rdf="http://www.w3.org/1999/02/22-rdf-syntax-ns#"
   xmlns:svg="http://www.w3.org/2000/svg"
   xmlns="http://www.w3.org/2000/svg"
   xmlns:sodipodi="http://sodipodi.sourceforge.net/DTD/sodipodi-0.dtd"
   xmlns:inkscape="http://www.inkscape.org/namespaces/inkscape"
   version="1.1"
   x="0px"
   y="0px"
   width="736.1062"
   height="316.90863"
   viewBox="0 0 736.10617 316.90862"
   xml:space="preserve"
   id="svg2"
   inkscape:version="0.91 r13725"
   sodipodi:docname="planeta.svg"><metadata
     id="metadata74"><rdf:RDF><cc:Work
         rdf:about=""><dc:format>image/svg+xml</dc:format><dc:type
           rdf:resource="http://purl.org/dc/dcmitype/StillImage" /><dc:title></dc:title></cc:Work></rdf:RDF></metadata><sodipodi:namedview
     pagecolor="#ffffff"
     bordercolor="#666666"
     borderopacity="1"
     objecttolerance="10"
     gridtolerance="10"
     guidetolerance="10"
     inkscape:pageopacity="0"
     inkscape:pageshadow="2"
     inkscape:window-width="1920"
     inkscape:window-height="1028"
     id="namedview72"
     showgrid="false"
     inkscape:zoom="0.83593616"
     inkscape:cx="407.18187"
     inkscape:cy="122.49506"
     inkscape:window-x="0"
     inkscape:window-y="0"
     inkscape:window-maximized="1"
     inkscape:current-layer="svg2"
     fit-margin-top="0"
     fit-margin-left="0"
     fit-margin-right="0"
     fit-margin-bottom="0" /><style
     type="text/css"
     id="style4">
	.st0{fill:#9EFAF6;}
	.st1{fill:#F6F9FF;}
	.st2{fill:#A8FCFF;}
	.st3{fill:#A5FEFF;}
	.st4{fill:#9FFFFE;}
	.st5{fill:#9DFAFB;}
	.st6{fill:#AEE5ED;}
</style><defs
     id="defs6"><clipPath
       id="clipPath4248"
       clipPathUnits="userSpaceOnUse"><path
         inkscape:connector-curvature="0"
         id="path4250"
         d="m 3408.47,2410.57 c 5.62,16.92 8.61,37.75 14.23,54.67 -6.68,7.12 -13.31,14.42 -19.92,21.78 35.81,5.52 71.16,14.08 105.79,24.73 0.38,-0.53 0.77,-1.06 1.16,-1.59 -7,-32.31 -15.51,-61.9 -29.48,-91.86 -21.79,-1.62 -49.98,-6.12 -71.78,-7.73 m -294.28,52.55 c -79.83,30.2 -164.08,83.56 -218.57,149.26 4.55,1.45 9.34,2.18 14.12,2.18 4.46,0 8.92,-0.63 13.2,-1.9 1.88,13.46 3.83,26.85 5.78,40.25 57.76,-61.98 132.96,-112.83 216.97,-142.95 -10.36,-15.66 -22.6,-30.69 -31.5,-46.84 m 415.9,418.14 c -1.7,0.14 -3.39,0.3 -5.09,0.46 -87.55,8.6 -169.69,43.12 -241.67,87.74 -54.3,33.67 -103.66,73.4 -146.81,117.8 -2.05,9.66 -4.18,19.31 -6.35,28.97 -7.21,0.5 -14.91,1.56 -22.81,2.84 -14.42,16.68 -28,33.93 -40.69,51.66 30.02,20.99 60.38,41.51 90.29,62.65 0.9,8.69 1.79,17.55 2.61,26.49 1.42,-0.57 2.84,-1.11 4.26,-1.64 41.84,-15.57 86.27,-22.88 130.87,-22.89 53.51,0 107.28,10.53 157.21,29.93 47.43,18.44 94.96,45.21 136.37,78.13 12.36,-26.04 23.28,-52.79 32.71,-79.94 20.28,-3.05 40.86,-4.73 61.41,-4.73 26.54,0 53.03,2.81 78.74,9.11 5.46,-6.06 9.26,-14.59 14.71,-20.66 -5.68,-24.76 -16.79,-50.52 -28.86,-72.87 39.09,-22.74 78.58,-43.61 121.69,-56.61 -11.21,-65.06 -42.28,-128.74 -97.54,-172.86 -20.74,-16.56 -44.34,-29.84 -69.69,-39.97 -7.1,16.8 -14.32,33.45 -21.23,49.82 -50.1,-22.93 -101.47,-46.36 -150.13,-73.43 m 51.23,338.7 c -47.65,0 -102.51,-44.75 -138.91,-67.28 -9.42,-5.83 -18.96,-11.89 -26.05,-20.41 -7.09,-8.52 -11.46,-20.03 -8.87,-30.81 2.97,-12.34 14.47,-21.17 26.69,-24.62 6.49,-1.83 13.2,-2.42 19.96,-2.42 5.96,0 11.95,0.46 17.88,0.92 26.84,2.1 53.88,4.23 79.84,11.34 20.54,5.63 40.62,14.62 56.04,29.3 31.44,29.92 35.99,95.81 -16.65,103.3 -3.26,0.46 -6.58,0.68 -9.93,0.68 m 416.42,-218.3 c -8.5,5.44 -22.24,13.03 -30.73,18.47 -3.32,-1.92 -6.64,-3.86 -9.96,-5.8 -0.06,1.73 -0.13,3.46 -0.21,5.18 -1.43,31.17 -5.71,62.12 -12.39,92.68 2.63,0.06 5.23,0.1 7.79,0.1 1.23,0 2.45,-0.01 3.66,-0.03 18.51,-15.31 37.46,-30.49 47.15,-52.47 7.63,-17.3 -1.11,-39.69 -5.31,-58.13 m -449.44,515.31 c -2.06,0.56 -4.06,1.11 -6,1.64 -46.15,12.61 -93.84,19.91 -141.72,19.91 -2.05,0 -4.1,-0.02 -6.15,-0.04 -12.62,-0.17 -25.27,-0.88 -37.88,-2.14 2.27,10.28 4.5,20.58 6.65,30.9 -9.11,24.24 -24.14,53.88 -33.24,78.13 23.47,2.56 46.38,4.15 69.03,4.15 36.72,0 72.77,-4.2 109.41,-15.28 0.4,-13.09 0.48,-25.79 5.85,-37.73 27.76,-8.63 52.56,-12.45 81.55,-14.72 -15.33,-21.06 -31.73,-43.27 -47.5,-64.82" /></clipPath><radialGradient
       id="radialGradient4252"
       spreadMethod="pad"
       gradientTransform="matrix(802.525,0,0,-802.525,3396.28,3305.58)"
       gradientUnits="userSpaceOnUse"
       r="1"
       cy="0"
       cx="0"
       fy="0"
       fx="0"><stop
         id="stop4254"
         offset="0"
         style="stop-opacity:1;stop-color:#66c991" /><stop
         id="stop4256"
         offset="1"
         style="stop-opacity:1;stop-color:#3a9aa8" /></radialGradient><clipPath
       id="clipPath4266"
       clipPathUnits="userSpaceOnUse"><path
         inkscape:connector-curvature="0"
         id="path4268"
         d="m 3294.7,3235.34 c -44.6,0.01 -89.03,7.32 -130.87,22.89 -1.42,0.53 -2.84,1.07 -4.26,1.64 2.75,30.22 4.64,61.49 3.2,90.97 -0.32,6.66 0.17,15.17 0.17,21.84 34.55,-5.54 67.36,-8.69 101.91,-14.22 6.53,24.89 11.52,47.54 18.05,72.43 18.22,2.18 34.6,8.8 52.81,10.98 6.58,31.59 13.9,62.97 20.84,94.47 12.61,1.26 25.26,1.97 37.88,2.14 2.05,0.02 4.1,0.04 6.15,0.04 47.88,0 95.57,-7.3 141.72,-19.91 1.94,-0.53 3.94,-1.08 6,-1.64 -4.21,-5.74 -8.36,-11.43 -12.45,-17.04 15.28,-19.91 28.78,-41.5 44.05,-61.42 -7.25,-11.54 -15.33,-25.02 -22.58,-36.56 11.15,-19.02 21.48,-38.57 30.96,-58.55 -41.41,-32.92 -88.94,-59.69 -136.37,-78.13 -49.93,-19.4 -103.7,-29.93 -157.21,-29.93" /></clipPath><radialGradient
       id="radialGradient4270"
       spreadMethod="pad"
       gradientTransform="matrix(802.525,0,0,-802.525,3396.28,3305.58)"
       gradientUnits="userSpaceOnUse"
       r="1"
       cy="0"
       cx="0"
       fy="0"
       fx="0"><stop
         id="stop4272"
         offset="0"
         style="stop-opacity:1;stop-color:#7cd1a9" /><stop
         id="stop4274"
         offset="1"
         style="stop-opacity:1;stop-color:#64caae" /></radialGradient><clipPath
       id="clipPath4286"
       clipPathUnits="userSpaceOnUse"><path
         inkscape:connector-curvature="0"
         id="path4288"
         d="m 3402.78,2487.02 c -16.03,17.88 -31.93,36.18 -48.14,53.47 -21.84,-7.86 -48.16,-10.7 -69.99,-18.56 -42.44,0 -88.36,1.4 -130.8,1.4 -2.49,-4.53 -5.25,-8.97 -8.16,-13.37 -84.01,30.12 -159.21,80.97 -216.97,142.95 2.19,15 4.38,30 6.49,45.07 0.26,0 0.51,0 0.77,0 18.98,0 36.62,7.22 54.19,14.5 7.42,24.6 14.32,48.91 19.84,73.58 109.68,-89.78 250.04,-142.85 391.81,-142.86 9.06,0 18.11,0.22 27.17,0.66 15.39,0.74 30.71,2.11 45.95,4.1 7.72,-15.32 14.72,-31.02 21.68,-46.03 7.56,-16.3 -7.31,-36.29 -13.8,-53.05 8.86,-12.1 16.95,-24.97 25.75,-37.13 -34.63,-10.65 -69.98,-19.21 -105.79,-24.73" /></clipPath><radialGradient
       id="radialGradient4290"
       spreadMethod="pad"
       gradientTransform="matrix(802.525,0,0,-802.525,3396.28,3305.58)"
       gradientUnits="userSpaceOnUse"
       r="1"
       cy="0"
       cx="0"
       fy="0"
       fx="0"><stop
         id="stop4292"
         offset="0"
         style="stop-opacity:1;stop-color:#54c38b" /><stop
         id="stop4294"
         offset="1"
         style="stop-opacity:1;stop-color:#338a9a" /></radialGradient><clipPath
       id="clipPath4304"
       clipPathUnits="userSpaceOnUse"><path
         inkscape:connector-curvature="0"
         id="path4306"
         d="m 3481.85,2801 c -14.17,0 -28.33,0.5 -42.49,1.52 -117.76,8.49 -232.34,50.9 -328.86,118.78 14.79,13.6 29.53,26.99 44.1,39.74 -2.06,42.71 -9.25,84.51 -18.08,126.22 43.15,-44.4 92.51,-84.13 146.81,-117.8 71.98,-44.62 154.12,-79.14 241.67,-87.74 1.7,-0.16 3.39,-0.32 5.09,-0.46 -18.96,-10.55 -37.51,-21.65 -55.41,-33.49 5.51,-16.46 6.67,-30.99 10.64,-46.76 -1.16,-0.01 -2.32,-0.01 -3.47,-0.01 m 241.84,48.53 c -6.9,18.52 -14.5,37.02 -22.24,55.34 25.35,10.13 48.95,23.41 69.69,39.97 55.26,44.12 86.33,107.8 97.54,172.86 3.05,-0.91 6.11,-1.79 9.2,-2.63 10.86,-2.95 22.77,-3.72 34.87,-3.72 6.67,0 13.39,0.24 20.03,0.47 3.93,0.14 7.83,0.28 11.67,0.37 6.68,-30.56 10.96,-61.51 12.39,-92.68 0.08,-1.72 0.15,-3.45 0.21,-5.18 -51.34,-30.08 -102.12,-62.47 -146.79,-101.62 -2.61,-8.58 -5.57,-17 -8.68,-25.35 -25.13,-14.25 -51.17,-26.9 -77.89,-37.83 m -616.33,269.54 c -18.04,2.91 -37.09,6.96 -53.54,8.11 0,10.31 0,24.22 0,34.52 4.28,3.03 8.56,6.03 12.85,9.03 12.69,-17.73 26.27,-34.98 40.69,-51.66" /></clipPath><radialGradient
       id="radialGradient4308"
       spreadMethod="pad"
       gradientTransform="matrix(802.525,0,0,-802.525,3396.28,3305.58)"
       gradientUnits="userSpaceOnUse"
       r="1"
       cy="0"
       cx="0"
       fy="0"
       fx="0"><stop
         id="stop4310"
         offset="0"
         style="stop-opacity:1;stop-color:#54c38b" /><stop
         id="stop4312"
         offset="1"
         style="stop-opacity:1;stop-color:#338a9a" /></radialGradient><clipPath
       id="clipPath4322"
       clipPathUnits="userSpaceOnUse"><path
         inkscape:connector-curvature="0"
         id="path4324"
         d="m 3401.82,2643.2 c -141.77,0.01 -282.13,53.08 -391.81,142.86 3.82,17.06 6.98,34.29 9.19,51.92 30.06,26.3 60.79,55.28 91.3,83.32 96.52,-67.88 211.1,-110.29 328.86,-118.78 14.16,-1.02 28.32,-1.52 42.49,-1.52 1.15,0 2.31,0 3.47,0.01 0.85,-3.39 1.83,-6.84 3.02,-10.38 -15.08,-29.14 -33.52,-58.29 -48.61,-87.42 13.98,-16.23 25.21,-35.42 35.21,-55.25 -15.24,-1.99 -30.56,-3.36 -45.95,-4.1 -9.06,-0.44 -18.11,-0.66 -27.17,-0.66 m 333.93,171.41 c -3.65,11.62 -7.72,23.28 -12.06,34.92 26.72,10.93 52.76,23.58 77.89,37.83 -7.46,-20.05 -15.76,-39.73 -22.03,-60.32 -14.51,-4.97 -29.29,-7.47 -43.8,-12.43" /></clipPath><radialGradient
       id="radialGradient4326"
       spreadMethod="pad"
       gradientTransform="matrix(802.525,0,0,-802.525,3396.28,3305.58)"
       gradientUnits="userSpaceOnUse"
       r="1"
       cy="0"
       cx="0"
       fy="0"
       fx="0"><stop
         id="stop4328"
         offset="0"
         style="stop-opacity:1;stop-color:#41bd83" /><stop
         id="stop4330"
         offset="1"
         style="stop-opacity:1;stop-color:#2e7b8c" /></radialGradient><clipPath
       id="clipPath4422"
       clipPathUnits="userSpaceOnUse"><path
         inkscape:connector-curvature="0"
         id="path4424"
         d="m 2938.32,2969.58 c -101.56,28.03 -194.23,79.56 -263.87,165.67 -0.83,2.76 -1.65,5.53 -2.44,8.3 63.56,-58.98 143.65,-117.2 234.27,-117.2 6.81,0 13.68,0.33 20.6,1.01 9.85,-15.03 16.68,-34.91 15.84,-52.86 -1.34,-1.71 -2.82,-3.34 -4.4,-4.92" /></clipPath><clipPath
       id="clipPath4450"
       clipPathUnits="userSpaceOnUse"><path
         inkscape:connector-curvature="0"
         id="path4452"
         d="m 3454.14,3074.42 c -6.76,0 -13.47,0.59 -19.96,2.42 -12.22,3.45 -23.72,12.28 -26.69,24.62 -2.59,10.78 1.78,22.29 8.87,30.81 7.09,8.52 16.63,14.58 26.05,20.41 36.4,22.53 91.26,67.28 138.91,67.28 3.35,0 6.67,-0.22 9.93,-0.68 52.64,-7.49 48.09,-73.38 16.65,-103.3 -15.42,-14.68 -35.5,-23.67 -56.04,-29.3 -25.96,-7.11 -53,-9.24 -79.84,-11.34 -5.93,-0.46 -11.92,-0.92 -17.88,-0.92" /></clipPath><radialGradient
       id="radialGradient4454"
       spreadMethod="pad"
       gradientTransform="matrix(802.525,0,0,-802.525,3396.28,3305.58)"
       gradientUnits="userSpaceOnUse"
       r="1"
       cy="0"
       cx="0"
       fy="0"
       fx="0"><stop
         id="stop4456"
         offset="0"
         style="stop-opacity:1;stop-color:#7cd1a9" /><stop
         id="stop4458"
         offset="1"
         style="stop-opacity:1;stop-color:#64caae" /></radialGradient><clipPath
       id="clipPath4508"
       clipPathUnits="userSpaceOnUse"><path
         inkscape:connector-curvature="0"
         id="path4510"
         d="m 5976.25,3222.55 c 17.19,-16.19 34.72,-57.26 34.72,-57.26 l -9.16,-84.03 14.16,-59.51 -6.33,-42.65 c 0,0 10.33,-30.98 14.92,-45.55 -8.36,-28.41 -19.62,-58 -27.98,-86.41 16.58,-20.29 28.91,-45.84 38.89,-70.07 -16,-106.9 -79.3,-209.31 -170.77,-266.92 -36.69,3.95 -71.68,1.94 -107.85,-5.4 -50.45,-57.3 -231.53,-138.35 -323.05,-147.76 -8.87,-13.48 -18.18,-27.15 -27.06,-40.64 -55.9,1.16 -110.55,6.71 -163.98,23.19 -11.95,21.64 -20.21,44.58 -27.49,68.21 -38.4,-5.36 -72.32,-14.4 -108.46,-28.45 -64.89,21.31 -160.74,123.75 -160.74,123.75 0,0 -14.32,86.61 -30.82,129.37 -24.3,13.34 -60.97,52.95 -60.97,52.95 0,0 -18.41,52.39 -23.29,80 -14.3,9.37 -23.05,16.76 -37.35,26.13 -20.42,51.34 -29.05,106.42 -29.74,161.67 -19.95,16.12 -39.03,32.45 -56.04,51.63 -19.26,107.91 78.1,309.38 78.1,309.38 0,0 73.9,45.83 115.09,59.28 20.36,45.95 83.17,127.17 83.17,127.17 0,0 8.93,44.35 14.55,66.23 70.59,46.4 147.27,79.82 229.78,97.93 22.9,-14.5 40.45,-30.64 59.88,-49.54 112.15,2.05 223.5,-11.75 331.35,-42.56 16.81,11.68 32.78,23.2 51.24,32.02 61.82,-17.47 118.17,-46.38 164.78,-90.59 0.29,-17.05 -2.07,-33.26 -5.24,-50.01 70.86,-62.57 130.96,-148.18 145.69,-241.56 z" /></clipPath><radialGradient
       id="radialGradient4512"
       spreadMethod="pad"
       gradientTransform="matrix(-339.471,-577.238,-577.238,339.471,5520.4,3230.57)"
       gradientUnits="userSpaceOnUse"
       r="1"
       cy="0"
       cx="0"
       fy="-0.00369645"
       fx="-0.153275"><stop
         id="stop4514"
         offset="0"
         style="stop-opacity:1;stop-color:#50c3ad" /><stop
         id="stop4516"
         offset="1"
         style="stop-opacity:1;stop-color:#3489a8" /></radialGradient><clipPath
       id="clipPath4682"
       clipPathUnits="userSpaceOnUse"><path
         inkscape:connector-curvature="0"
         id="path4684"
         d="m 1309.47,338.922 -41.34,20.117 -1.04,0.512 -1.2,0.019 c -19.68,0.321 -39.58,1.551 -59.3,3.27 -19.75,1.719 -39.43,4.18 -58.91,7.519 -19.5,3.27 -38.85,7.43 -57.55,13.379 -18.6,5.922 -37.07,13.121 -52.56,24.223 l -0.97,0.699 c 48.45,-16.789 96.62,-40 146.28,-40 4.99,0 9.99,0.238 15.01,0.731 26.42,2.629 49.06,7.211 75.48,9.828 13.8,-11.637 28.92,-21.84 44.1,-31.61 30.66,7.532 60.5,20.653 91.91,20.653 1.41,0 2.82,-0.032 4.24,-0.082 2.1,-0.078 4.26,-0.121 6.47,-0.121 76.42,0 210.54,47.293 210.54,47.293 0,0 19.49,-0.563 40,-1.411 -3.8,-3.242 -7.63,-6.441 -11.48,-9.609 l -28.67,-3.422 -0.92,-0.109 -0.83,-0.422 c -33.75,-17.238 -70.01,-29.449 -107.29,-36.309 -26.33,-4.89 -53.13,-7.14 -79.96,-7.14 -11.16,0 -22.31,0.39 -33.45,1.14 l -0.68,0.051 -0.71,-0.141 -97.17,-19.058 m -288.8,69.418 c -5.08,0 -10.24,0.211 -15.36,0.492 -9.259,0.449 -18.591,1.238 -27.826,1.977 -30.589,20.832 -57.644,47 -82.879,74.613 -25.542,28.027 -49.242,57.816 -73.171,87.359 5.964,-8.07 11.91,-16.152 17.882,-24.222 -0.3,0.39 -0.597,0.773 -0.894,1.16 -6.059,7.82 -12,15.543 -17.828,23.062 0,0 -4.414,2.61 -11.219,6.391 -14.535,8.066 -39.973,21.457 -56.445,26.066 -64.125,92.543 -87.996,216.762 -68.582,327.653 -24.407,50.488 -37.68,106.839 -39.055,162.899 13.043,11.26 26.402,22.75 39.445,34.01 3.297,74.35 31.625,146.85 76.418,206.29 5.489,0.86 9.957,1.32 15.449,2.19 7.875,17.52 16.399,34.8 25.532,51.75 46.922,87.07 110.148,165.74 187.023,227.63 4.235,15.52 11.75,29.79 22.38,41.86 15.25,1.56 40.36,1.8 54.16,1.8 6,0 9.86,-0.04 9.86,-0.04 0,0 45.47,23.22 69.41,35.12 21.74,-4.79 44.31,-12.81 63.36,-24.33 121.84,44.7 248.06,68.25 377.45,78.23 -3.61,-26.99 -4.08,-56.12 -1.47,-83.22 6.64,-3.37 11.96,-8.13 16.71,-13.87 -0.69,-23.1 -0.38,-46.39 -1.07,-69.49 1.61,0.43 3.27,0.89 4.99,1.36 40.49,11.06 111.94,30.88 111.94,30.88 0,0 16.89,-5.39 25.13,-10.42 40.93,6.89 82.44,10.34 123.94,10.34 25.15,0 50.29,-1.27 75.3,-3.81 1.57,-20.8 3.21,-43.76 4.78,-64.56 3.7,-49.25 -8.76,-98.39 -23.2,-145.62 6.93,-4.77 15,-8.18 21.93,-12.95 -7.84,-61.64 -6.84,-122.94 0.62,-184.64 18.18,-1.97 37.17,-3.25 56.01,-3.25 7.44,0 14.87,0.2 22.21,0.64 -45.44,-88.9 -103.19,-240.76 -103.19,-240.76 0,0 -75.67,-57.321 -122.69,-70.289 9.86,-2.75 17.86,-5.809 27.72,-8.559 -49.74,-56.113 -113.99,-98.66 -184.26,-124.812 14.44,0.582 30.93,2.039 45.37,2.609 -9.55,-9.649 -20.04,-18.699 -31.23,-26.988 -33.11,-14.25 -67.68,-25.52 -103.2,-33.75 37.95,31.589 67.68,72.32 82.45,119.429 -113.98,-83.519 -245.37,-148.078 -385.82,-163.648 -20.19,-2.242 -40.58,-3.371 -61,-3.371 -121.6,0 -244.184,40.027 -331.289,124 67.719,-87.199 113.574,-184.25 210.149,-237.762 71.29,-39.5 151.57,-61.848 232.9,-66.668 -14.95,-1.34 -29.12,-2.152 -41.63,-2.152 -1.54,0 -3.07,0.011 -4.56,0.043 50.95,-6.282 102.26,-9.364 153.57,-9.364 84.75,0 169.52,8.391 252.77,24.582 -109.05,-44.98 -226.84,-68.75 -344.81,-69.148 -1.03,0 -2.07,0 -3.1,0 -148.07,0 -296.15,35.039 -426.926,104.488 31.672,-41.398 68.66,-88.05 119.176,-100.941 10.49,-2.68 20.95,-5.957 31.39,-9.559 l -1.45,-0.14 c -4.32,-0.418 -8.77,-0.59 -13.27,-0.59 M 910.742,523.031 c 128.968,-65.461 273.608,-99.609 418.198,-99.609 34.29,0 68.57,1.918 102.65,5.789 -91.5,1.848 -182.54,24.59 -267.58,58.43 -7.02,-11.391 -20.56,-17.282 -33.91,-18.039 -12.16,1.128 -22.97,11.347 -24.8,23.429 -5.99,-0.133 -11.97,-0.203 -17.94,-0.203 -60.73,0 -120.227,7.031 -176.618,30.203 M 1036.02,1535.73 C 905.387,1436.34 808.379,1293.54 764.125,1135.47 881.66,1008.13 1031.88,914.43 1225.43,863.289 c 85.19,-22.508 165.45,-63.707 252.6,-63.707 5.01,0 10.04,0.137 15.11,0.418 -12.62,11.09 -27.43,28.27 -40.03,39.352 80.53,34.308 146.07,80.636 210.37,140.046 -3.47,6.352 -10.91,18.43 -14.38,24.792 66.45,82.71 115.44,181.84 149.61,282.29 28.64,84.22 10.18,184.68 -36.55,260.38 -83.86,-180.12 -242.07,-322.97 -427.46,-394.45 -51.91,-20.01 -106.75,-34.53 -162.34,-34.53 -1.67,0 -3.34,0.01 -5.01,0.04 -57.3,0.91 -115.63,18.62 -158.54,56.62 -49.154,43.53 -74.064,111.45 -69.763,176.97 4.301,65.51 49.726,138.62 96.973,184.22 M 1537.8,509.242 c 4.67,1.879 9.31,3.828 13.92,5.848 15.09,6.601 29.83,13.91 44.16,21.879 27.94,8.472 55.63,17.801 83,27.972 -9.58,-2.921 -19.89,-4.261 -30.35,-4.261 -4.33,0 -8.68,0.218 -13.01,0.672 100.73,68.207 177.42,170.269 215.04,286.527 13.18,9 26.84,16.992 41.26,23.34 4.61,-72.239 4.59,-145.547 -26.8,-210.778 -31.38,-65.23 -94.48,-118.863 -166.78,-122.281 -4.86,10.18 -6.34,23.391 -4.69,34.551 -34.51,-33.422 -103.76,-52.961 -155.75,-63.469 m 277.81,167.508 c -2.43,-22.23 -12.6,-43.059 -25.81,-61.109 -13.22,-18.039 -28.49,-35.012 -44.63,-50.493 45.2,22.071 83.4,58.204 107.95,102.102 24.54,43.891 35.32,95.359 30.45,145.422 -3.92,-11.133 -7.52,-26.293 -10.19,-37.793 -2.67,-11.5 -6.6,-23.07 -14.31,-32 -6.83,-7.91 -16.79,-16.027 -26.97,-16.027 -1.33,0 -2.66,0.136 -3.99,0.429 6.03,-9.66 9.76,-20.761 10.8,-32.109 0.49,-5.442 0.34,-11.113 -1.9,-16.102 -2.23,-4.992 -6.91,-9.16 -12.37,-9.488 -0.38,-0.031 -0.75,-0.043 -1.11,-0.043 -4.85,0 -8.08,2.133 -7.92,7.211 m 211.31,494.53 c 2.4,6.2 4.94,12.32 7.64,18.36 -2.7,-6.04 -5.24,-12.16 -7.64,-18.36 l 0,0 m 13.73,31.88 c 0.09,0.01 0.18,0.02 0.28,0.03 l 0,0 c -0.1,-0.01 -0.19,-0.02 -0.28,-0.03" /></clipPath><radialGradient
       id="radialGradient4686"
       spreadMethod="pad"
       gradientTransform="matrix(405.64,-574.329,574.329,405.64,1064.97,1286.23)"
       gradientUnits="userSpaceOnUse"
       r="1"
       cy="0"
       cx="0"
       fy="0"
       fx="0"><stop
         id="stop4688"
         offset="0"
         style="stop-opacity:1;stop-color:#93dac6" /><stop
         id="stop4690"
         offset="1"
         style="stop-opacity:1;stop-color:#29688b" /></radialGradient><clipPath
       id="clipPath4698"
       clipPathUnits="userSpaceOnUse"><path
         inkscape:connector-curvature="0"
         id="path4700"
         d="m 1478.03,799.582 c -87.15,0 -167.41,41.199 -252.6,63.707 -193.55,51.141 -343.77,144.841 -461.305,272.181 44.254,158.07 141.262,300.87 271.895,400.26 -47.247,-45.6 -92.672,-118.71 -96.973,-184.22 -4.301,-65.52 20.609,-133.44 69.763,-176.97 42.91,-38 101.24,-55.71 158.54,-56.62 1.67,-0.03 3.34,-0.04 5.01,-0.04 55.59,0 110.43,14.52 162.34,34.53 185.39,71.48 343.6,214.33 427.46,394.45 46.73,-75.7 65.19,-176.16 36.55,-260.38 -34.17,-100.45 -83.16,-199.58 -149.61,-282.29 3.47,-6.362 10.91,-18.44 14.38,-24.792 -64.3,-59.41 -129.84,-105.738 -210.37,-140.046 12.6,-11.082 27.41,-28.262 40.03,-39.352 -5.07,-0.281 -10.1,-0.418 -15.11,-0.418 m -57.58,25.098 0,0 0,0 c -6.86,9.871 -10.03,19.25 -16.89,29.109 80.73,31.551 153.9,73.582 226.73,120.582 41.12,110.959 88.73,227.379 140.75,333.679 -57.54,-71.32 -119.06,-141.59 -181.24,-208.9 -42.66,-46.19 -88.37,-91.12 -144.13,-120.162 -55.14,-28.726 -117.72,-40.437 -180.15,-40.437 -13.62,0 -27.22,0.558 -40.75,1.621 -90.16,7.047 -180.46,36.93 -248.848,96.108 -68.391,59.18 -117.574,148.32 -108.422,238.3 -29.516,-40.62 -51.691,-86.54 -65.148,-134.91 C 967.316,973.25 1187.84,852.941 1420.45,824.68" /></clipPath><radialGradient
       id="radialGradient4702"
       spreadMethod="pad"
       gradientTransform="matrix(405.64,-574.329,574.329,405.64,1064.97,1286.23)"
       gradientUnits="userSpaceOnUse"
       r="1"
       cy="0"
       cx="0"
       fy="0"
       fx="0"><stop
         id="stop4704"
         offset="0"
         style="stop-opacity:1;stop-color:#7ed3c1" /><stop
         id="stop4706"
         offset="1"
         style="stop-opacity:1;stop-color:#275f84" /></radialGradient><clipPath
       id="clipPath4714"
       clipPathUnits="userSpaceOnUse"><path
         inkscape:connector-curvature="0"
         id="path4716"
         d="m 1420.45,824.68 c -232.61,28.261 -453.134,148.57 -618.098,314.99 13.457,48.37 35.632,94.29 65.148,134.91 -9.152,-89.98 40.031,-179.12 108.422,-238.3 68.388,-59.178 158.688,-89.061 248.848,-96.108 13.53,-1.063 27.13,-1.621 40.75,-1.621 62.43,0 125.01,11.711 180.15,40.437 55.76,29.042 101.47,73.972 144.13,120.162 62.18,67.31 123.7,137.58 181.24,208.9 -52.02,-106.3 -99.63,-222.72 -140.75,-333.679 -72.83,-47 -146,-89.031 -226.73,-120.582 6.86,-9.859 10.03,-19.238 16.89,-29.109" /></clipPath><radialGradient
       id="radialGradient4718"
       spreadMethod="pad"
       gradientTransform="matrix(405.64,-574.329,574.329,405.64,1064.97,1286.23)"
       gradientUnits="userSpaceOnUse"
       r="1"
       cy="0"
       cx="0"
       fy="0"
       fx="0"><stop
         id="stop4720"
         offset="0"
         style="stop-opacity:1;stop-color:#6dcdbd" /><stop
         id="stop4722"
         offset="1"
         style="stop-opacity:1;stop-color:#23577d" /></radialGradient><clipPath
       id="clipPath4730"
       clipPathUnits="userSpaceOnUse"><path
         inkscape:connector-curvature="0"
         id="path4732"
         d="m 1299.51,471.121 c -81.33,4.82 -161.61,27.168 -232.9,66.668 -96.575,53.512 -142.43,150.563 -210.149,237.762 87.105,-83.973 209.689,-124 331.289,-124 20.42,0 40.81,1.129 61,3.371 140.45,15.57 271.84,80.129 385.82,163.648 -14.77,-47.109 -44.5,-87.84 -82.45,-119.429 35.52,8.23 70.09,19.5 103.2,33.75 -32.37,-23.981 -70.63,-41.692 -109.1,-49.442 61.07,6.153 123.9,28.563 175.26,62.153 44.87,29.347 84.22,71.66 129.08,102.277 -37.62,-116.258 -114.31,-218.32 -215.04,-286.527 -15.31,1.558 -30.46,5.777 -43.7,11.957 -0.35,-7.789 -3.99,-12.75 -4.34,-20.539 -41.81,-14.461 -86.74,-23.711 -130.8,-27.731 -2.83,6.383 -6.95,11.672 -9.78,18.051 -1.41,-10.668 -6.35,-20.91 -11.82,-30.168 -22.63,-7.883 -45.36,-12.031 -69.3,-12.891 -1.33,3.801 -3.15,8.16 -4.47,11.957 -17.55,-14.347 -42.66,-28.668 -65.05,-32.218 101.53,8.39 202.14,27.621 299.62,57.199 -14.33,-7.969 -29.07,-15.278 -44.16,-21.879 -4.61,-2.02 -9.25,-3.969 -13.92,-5.848 -37.53,-7.594 -66.07,-10.472 -66.07,-10.472 0,0 -96.2,-20.809 -172.22,-27.649" /></clipPath><radialGradient
       id="radialGradient4734"
       spreadMethod="pad"
       gradientTransform="matrix(405.64,-574.329,574.329,405.64,1064.97,1286.23)"
       gradientUnits="userSpaceOnUse"
       r="1"
       cy="0"
       cx="0"
       fy="0"
       fx="0"><stop
         id="stop4736"
         offset="0"
         style="stop-opacity:1;stop-color:#7ed3c1" /><stop
         id="stop4738"
         offset="1"
         style="stop-opacity:1;stop-color:#275f84" /></radialGradient><clipPath
       id="clipPath4782"
       clipPathUnits="userSpaceOnUse"><path
         inkscape:connector-curvature="0"
         id="path4784"
         d="m 1328.94,423.422 c -144.59,0 -289.23,34.148 -418.198,99.609 56.391,-23.172 115.888,-30.203 176.618,-30.203 5.97,0 11.95,0.07 17.94,0.203 1.83,-12.082 12.64,-22.301 24.8,-23.429 13.35,0.757 26.89,6.648 33.91,18.039 85.04,-33.84 176.08,-56.582 267.58,-58.43 -34.08,-3.871 -68.36,-5.789 -102.65,-5.789" /></clipPath><radialGradient
       id="radialGradient4786"
       spreadMethod="pad"
       gradientTransform="matrix(405.64,-574.329,574.329,405.64,1064.97,1286.23)"
       gradientUnits="userSpaceOnUse"
       r="1"
       cy="0"
       cx="0"
       fy="0"
       fx="0"><stop
         id="stop4788"
         offset="0"
         style="stop-opacity:1;stop-color:#7ed3c1" /><stop
         id="stop4790"
         offset="1"
         style="stop-opacity:1;stop-color:#275f84" /></radialGradient><clipPath
       id="clipPath4798"
       clipPathUnits="userSpaceOnUse"><path
         inkscape:connector-curvature="0"
         id="path4800"
         d="m 1595.88,536.969 c 13.59,7.551 26.8,15.679 39.64,24.383 4.33,-0.454 8.68,-0.672 13.01,-0.672 10.46,0 20.77,1.34 30.35,4.261 -27.37,-10.171 -55.06,-19.5 -83,-27.972" /></clipPath><radialGradient
       id="radialGradient4802"
       spreadMethod="pad"
       gradientTransform="matrix(405.64,-574.329,574.329,405.64,1064.97,1286.23)"
       gradientUnits="userSpaceOnUse"
       r="1"
       cy="0"
       cx="0"
       fy="0"
       fx="0"><stop
         id="stop4804"
         offset="0"
         style="stop-opacity:1;stop-color:#7ed3c1" /><stop
         id="stop4806"
         offset="1"
         style="stop-opacity:1;stop-color:#275f84" /></radialGradient><clipPath
       id="clipPath4814"
       clipPathUnits="userSpaceOnUse"><path
         inkscape:connector-curvature="0"
         id="path4816"
         d="m 1296.26,479.77 c 22.39,3.55 47.5,17.871 65.05,32.218 1.32,-3.797 3.14,-8.156 4.47,-11.957 23.94,0.86 46.67,5.008 69.3,12.891 5.47,9.258 10.41,19.5 11.82,30.168 2.83,-6.379 6.95,-11.668 9.78,-18.051 44.06,4.02 88.99,13.27 130.8,27.731 0.35,7.789 3.99,12.75 4.34,20.539 13.24,-6.18 28.39,-10.399 43.7,-11.957 -12.84,-8.704 -26.05,-16.832 -39.64,-24.383 -97.48,-29.578 -198.09,-48.809 -299.62,-57.199" /></clipPath><radialGradient
       id="radialGradient4818"
       spreadMethod="pad"
       gradientTransform="matrix(405.64,-574.329,574.329,405.64,1064.97,1286.23)"
       gradientUnits="userSpaceOnUse"
       r="1"
       cy="0"
       cx="0"
       fy="0"
       fx="0"><stop
         id="stop4820"
         offset="0"
         style="stop-opacity:1;stop-color:#6dcdbd" /><stop
         id="stop4822"
         offset="1"
         style="stop-opacity:1;stop-color:#23577d" /></radialGradient><clipPath
       id="clipPath4830"
       clipPathUnits="userSpaceOnUse"><path
         inkscape:connector-curvature="0"
         id="path4832"
         d="m 1745.17,565.148 c 16.14,15.481 31.41,32.454 44.63,50.493 13.21,18.05 23.38,38.879 25.81,61.109 -0.16,-5.078 3.07,-7.211 7.92,-7.211 0.36,0 0.73,0.012 1.11,0.043 5.46,0.328 10.14,4.496 12.37,9.488 2.24,4.989 2.39,10.66 1.9,16.102 -1.04,11.348 -4.77,22.449 -10.8,32.109 1.33,-0.293 2.66,-0.429 3.99,-0.429 10.18,0 20.14,8.117 26.97,16.027 7.71,8.93 11.64,20.5 14.31,32 2.67,11.5 6.27,26.66 10.19,37.793 4.87,-50.063 -5.91,-101.531 -30.45,-145.422 -24.55,-43.898 -62.75,-80.031 -107.95,-102.102" /></clipPath><radialGradient
       id="radialGradient4834"
       spreadMethod="pad"
       gradientTransform="matrix(405.64,-574.329,574.329,405.64,1064.97,1286.23)"
       gradientUnits="userSpaceOnUse"
       r="1"
       cy="0"
       cx="0"
       fy="0"
       fx="0"><stop
         id="stop4836"
         offset="0"
         style="stop-opacity:1;stop-color:#7ed3c1" /><stop
         id="stop4838"
         offset="1"
         style="stop-opacity:1;stop-color:#275f84" /></radialGradient><clipPath
       id="clipPath4846"
       clipPathUnits="userSpaceOnUse"><path
         inkscape:connector-curvature="0"
         id="path4848"
         d="m 1355.41,2410.2 c -260.66,0 -482.566,165.87 -565.93,397.82 -22.828,63.52 -35.269,132 -35.269,203.38 0,67.6 11.152,132.58 31.73,193.24 27.082,79.83 70.473,152.13 126.219,212.93 109.91,119.86 267.81,195.03 443.25,195.03 159.45,0 304.4,-62.07 412,-163.37 116.47,-109.64 189.2,-265.25 189.2,-437.83 0,-50.02 -6.1,-98.59 -17.61,-145.04 -46.7,-188.49 -182.34,-341.91 -359.8,-413.13 -69.17,-27.76 -144.69,-43.03 -223.79,-43.03 m -388.949,242.77 c -0.27,-19.23 -0.508,-38.49 -0.57,-57.87 34.879,-30.19 75.339,-57.02 116.389,-78.05 23.49,-12.04 48.91,-5.32 74.99,-9.43 8.2,7.26 16.68,14.84 25.15,22.41 4.26,-1.23 8.55,-2.41 12.84,-3.52 42.76,-11.11 86.78,-16.47 130.83,-16.47 160.07,0 320.62,70.8 423.75,193.89 75.46,90.07 117.98,205.52 124.37,322.72 2.56,6.17 5.1,12.35 7.6,18.58 -2.01,3.27 -4.33,6.85 -6.75,10.54 0.26,77.42 -15.32,154.77 -47.66,225.24 15.25,-61.6 4.06,-126.48 -14.47,-187.51 -1.04,55.95 -8.85,111.73 -26.56,164.7 -23.81,71.21 -66.32,137.24 -126.38,182.3 -1.8,-97.75 -44.78,-189.83 -115.96,-254.73 20.51,27.97 40.69,53 64.72,79.37 -5.23,18.99 -10.12,38.55 -14.96,58.2 -2.48,21.78 -5.2,43.54 -8.38,65.27 -0.23,-9.78 -0.38,-19.56 -0.45,-29.32 -3.99,16.08 -8.06,32.03 -12.34,47.61 14.84,40.06 28.19,83.07 43.03,123.13 -8.84,2.39 -18.02,5.98 -26.86,8.37 -14.99,-17.23 -31.57,-34.49 -46.56,-51.72 -4.55,-42.21 -10.3,-89.4 -14.85,-131.61 -21.85,-27.07 -45.38,-54.31 -67.23,-81.38 -15.34,-19.01 -13.77,-45.37 -20.97,-68.71 -2.16,0.26 -4.52,0.4 -6.98,0.4 -8.59,0 -18.37,-1.65 -25.02,-5.37 -8.27,-17.25 -18.14,-41.14 -26.41,-58.39 -41.95,2.74 -85.24,6.83 -126.89,14.6 l -20.66,29.88 c -1.22,13.93 -2.75,26.9 -6.54,42.94 -0.43,0.56 -1.06,0.8 -1.72,0.8 -0.53,0 -1.08,-0.16 -1.56,-0.43 -33.14,23.55 -68.66,51.25 -97.6,79.32 8.07,41.72 12.28,86.18 20.35,127.9 -16.56,23.58 -34.47,52.99 -51.02,76.57 -18.25,-10.15 -33.08,-12.95 -51.33,-23.1 6.16,-33.88 12.32,-67.76 18.47,-101.64 -22.31,-31.3 -42.79,-59.03 -61.33,-92.7 2.32,-28.63 4.35,-56.73 6.52,-85.06 -39.081,37.95 -71.526,82.94 -94.925,131.71 -64.238,-117.14 -79.847,-259.34 -45.797,-388.29 -16.797,-2.23 -33.312,-3.42 -49.148,-3.42 -6.961,0 -13.789,0.23 -20.449,0.7 21.91,-114.46 83.648,-219.6 169.32,-298.43 m 275.659,505.55 c -2.24,0.46 -4.47,0.93 -6.69,1.42 -0.73,7.79 -1.26,14.85 -1.82,21.58 l 8.51,-23" /></clipPath><radialGradient
       id="radialGradient4850"
       spreadMethod="pad"
       gradientTransform="matrix(357.42,-865.181,-865.181,-357.42,1105.41,3328.06)"
       gradientUnits="userSpaceOnUse"
       r="1"
       cy="0"
       cx="0"
       fy="0"
       fx="0"><stop
         id="stop4852"
         offset="0"
         style="stop-opacity:1;stop-color:#f0451d" /><stop
         id="stop4854"
         offset="1"
         style="stop-opacity:1;stop-color:#b81555" /></radialGradient><clipPath
       id="clipPath4862"
       clipPathUnits="userSpaceOnUse"><path
         inkscape:connector-curvature="0"
         id="path4864"
         d="m 1157.27,2507.62 c -26.08,4.11 -51.5,-2.61 -74.99,9.43 -41.05,21.03 -81.51,47.86 -116.389,78.05 0.062,19.38 0.3,38.64 0.57,57.87 15.277,-14.06 31.301,-27.27 48.009,-39.56 -1.39,-8.02 -2.75,-16.04 -4.06,-24.08 2.06,7.53 4.07,15.07 6.05,22.62 12.25,-8.92 24.87,-17.36 37.79,-25.24 -2.13,-5.23 -4.25,-10.47 -6.34,-15.71 2.6,4.94 5.19,9.89 7.75,14.85 19.26,-11.68 39.22,-22.15 59.77,-31.32 -5.27,-3.94 -10.54,-7.89 -15.79,-11.87 5.99,3.62 11.98,7.26 17.95,10.92 21.04,-9.28 42.69,-17.17 64.83,-23.55 -8.47,-7.57 -16.95,-15.15 -25.15,-22.41 m 716.94,519.03 c 0.53,9.7 0.81,19.41 0.85,29.12 2.42,-3.69 4.74,-7.27 6.75,-10.54 -2.5,-6.23 -5.04,-12.41 -7.6,-18.58 m -581.12,64.76 c -2.84,0 -5.68,0.03 -8.51,0.09 l 0,20.33 -30.7,44.39 c 41.65,-7.77 84.94,-11.86 126.89,-14.6 8.27,17.25 18.14,41.14 26.41,58.39 6.65,3.72 16.43,5.37 25.02,5.37 2.46,0 4.82,-0.14 6.98,-0.4 7.2,23.34 5.63,49.7 20.97,68.71 21.85,27.07 45.38,54.31 67.23,81.38 4.55,42.21 10.3,89.4 14.85,131.61 14.99,17.23 31.57,34.49 46.56,51.72 8.84,-2.39 18.02,-5.98 26.86,-8.37 -14.84,-40.06 -28.19,-83.07 -43.03,-123.13 4.28,-15.58 8.35,-31.53 12.34,-47.61 -0.21,-26.92 0.13,-53.8 0.64,-80.68 -16.17,-16.92 -32.44,-33.75 -48.3,-50.95 -16.5,-17.73 -33,-35.46 -49.16,-53.49 l -1.83,-2.05 -0.51,-2.81 c -1.8,-9.89 -3.56,-19.79 -5.29,-29.7 -26.1,-14.82 -54.02,-26.2 -82.92,-34.18 6.45,19.25 12.83,38.52 19.31,57.76 35.13,23.92 69.92,48.35 104.86,72.55 l 2.95,2.04 0.58,3.28 c 6.72,38.48 13.68,76.92 20.04,115.48 6.65,38.39 12.37,76.96 18.55,115.44 l 21.53,34.02 -24.88,-32.25 -0.2,-0.26 -0.11,-0.46 c -8.8,-38.08 -18.06,-76.07 -26.39,-114.24 -8.38,-36.95 -16.2,-74 -24.21,-111.02 -35.45,-23.44 -71.06,-46.66 -106.3,-70.42 l -2.69,-1.81 -1.05,-3.1 c -8.25,-24.21 -16.65,-48.37 -24.9,-72.58 -26.76,-5.64 -54.17,-8.45 -81.59,-8.45 m -26.46,0.88 c -10.82,0.71 -21.61,1.86 -32.33,3.45 l -1.56,3.7 -0.16,0.39 -0.15,0.28 -33.09,63.76 -33.36,63.61 -0.56,1.06 -0.64,0.69 -47.21,50.86 5.87,62.37 5.6,65.68 0.09,1.07 -0.45,0.74 c -12.59,21 -25.27,41.94 -38.27,62.71 10.61,-21.68 21.54,-43.19 32.55,-64.65 l -9.92,-64.31 -9.48,-65.22 -0.42,-2.94 2.13,-2.47 46.46,-53.9 31.37,-63.57 27.78,-55.67 c -10.38,2.19 -20.66,4.78 -30.83,7.8 -0.54,5.31 -1.08,10.61 -1.61,15.91 l -0.49,4.86 -4.14,2.51 c -36.71,22.32 -73.72,44.15 -110.66,66.08 l 11.13,70.99 11.58,76.97 0.13,0.89 -0.09,0.66 c -3.29,25.22 -7.18,50.38 -10.78,75.57 -3.61,25.18 -7.3,50.36 -11.37,75.49 1.47,-25.42 3.34,-50.79 5.28,-76.16 1.94,-25.06 3.6,-50.15 5.81,-75.18 l -14.96,-75.74 -14.62,-76.44 -1.08,-5.66 5.09,-3.17 c 36.7,-22.86 73.33,-45.84 110.23,-68.36 0.08,-0.86 0.17,-1.72 0.25,-2.57 -56.82,20.37 -108.69,53.96 -152.29,96.32 -2.17,28.33 -4.2,56.43 -6.52,85.06 18.54,33.67 39.02,61.4 61.33,92.7 -6.15,33.88 -12.31,67.76 -18.47,101.64 18.25,10.15 33.08,12.95 51.33,23.1 16.55,-23.58 34.46,-52.99 51.02,-76.57 -8.07,-41.72 -12.28,-86.18 -20.35,-127.9 28.94,-28.07 64.46,-55.77 97.6,-79.32 0.48,0.27 1.03,0.43 1.56,0.43 0.66,0 1.29,-0.24 1.72,-0.8 3.79,-16.04 5.32,-29.01 6.54,-42.94 l -2.81,4.06 3.2,-8.64 c 0.56,-6.73 1.09,-13.79 1.82,-21.58 2.22,-0.49 4.45,-0.96 6.69,-1.42 l 24.51,-66.23 m 236.34,61.23 c 0.53,3.27 1.07,6.54 1.6,9.81 15.45,17.38 30.62,35.02 45.78,52.67 15.85,18.31 31.27,37.01 46.81,55.59 l 1.92,2.31 -0.25,2.5 c -1.6,15.65 -3.25,31.3 -5.04,46.94 4.84,-19.65 9.73,-39.21 14.96,-58.2 -24.03,-26.37 -44.21,-51.4 -64.72,-79.37 -12.8,-11.66 -26.52,-22.47 -41.06,-32.25" /></clipPath><radialGradient
       id="radialGradient4866"
       spreadMethod="pad"
       gradientTransform="matrix(357.42,-865.181,-865.181,-357.42,1105.41,3328.06)"
       gradientUnits="userSpaceOnUse"
       r="1"
       cy="0"
       cx="0"
       fy="0"
       fx="0"><stop
         id="stop4868"
         offset="0"
         style="stop-opacity:1;stop-color:#f35e1c" /><stop
         id="stop4870"
         offset="1"
         style="stop-opacity:1;stop-color:#ce195d" /></radialGradient><clipPath
       id="clipPath4878"
       clipPathUnits="userSpaceOnUse"><path
         inkscape:connector-curvature="0"
         id="path4880"
         d="m 1099.64,2542.66 c 5.25,3.98 10.52,7.93 15.79,11.87 0.72,-0.32 1.44,-0.64 2.16,-0.95 -5.97,-3.66 -11.96,-7.3 -17.95,-10.92 m -51.73,28.34 c 2.09,5.24 4.21,10.48 6.34,15.71 0.47,-0.29 0.94,-0.58 1.41,-0.86 -2.56,-4.96 -5.15,-9.91 -7.75,-14.85 m -37.5,18.33 c 1.31,8.04 2.67,16.06 4.06,24.08 0.66,-0.49 1.33,-0.97 1.99,-1.46 -1.98,-7.55 -3.99,-15.09 -6.05,-22.62" /></clipPath><radialGradient
       id="radialGradient4882"
       spreadMethod="pad"
       gradientTransform="matrix(357.42,-865.181,-865.181,-357.42,1105.41,3328.06)"
       gradientUnits="userSpaceOnUse"
       r="1"
       cy="0"
       cx="0"
       fy="0"
       fx="0"><stop
         id="stop4884"
         offset="0"
         style="stop-opacity:1;stop-color:#f03e1e" /><stop
         id="stop4886"
         offset="1"
         style="stop-opacity:1;stop-color:#c31a37" /></radialGradient><clipPath
       id="clipPath4894"
       clipPathUnits="userSpaceOnUse"><path
         inkscape:connector-curvature="0"
         id="path4896"
         d="m 1253.88,3156.22 c -3.93,0.73 -7.85,1.5 -11.76,2.3 l -8.51,23 c -0.13,1.54 -0.26,3.07 -0.39,4.58 l 20.66,-29.88" /></clipPath><radialGradient
       id="radialGradient4898"
       spreadMethod="pad"
       gradientTransform="matrix(357.42,-865.181,-865.181,-357.42,1105.41,3328.06)"
       gradientUnits="userSpaceOnUse"
       r="1"
       cy="0"
       cx="0"
       fy="0"
       fx="0"><stop
         id="stop4900"
         offset="0"
         style="stop-opacity:1;stop-color:#ef3021" /><stop
         id="stop4902"
         offset="1"
         style="stop-opacity:1;stop-color:#ad1933" /></radialGradient><clipPath
       id="clipPath4910"
       clipPathUnits="userSpaceOnUse"><path
         inkscape:connector-curvature="0"
         id="path4912"
         d="m 1284.58,3091.5 c -5.99,0.13 -11.97,0.39 -17.95,0.79 l -24.51,66.23 c 3.91,-0.8 7.83,-1.57 11.76,-2.3 l 30.7,-44.39 0,-20.33 m -50.28,4.24 c -7.85,1.17 -15.66,2.56 -23.42,4.19 l -27.78,55.67 -31.37,63.57 -46.46,53.9 -2.13,2.47 0.42,2.94 9.48,65.22 9.92,64.31 c -11.01,21.46 -21.94,42.97 -32.55,64.65 13,-20.77 25.68,-41.71 38.27,-62.71 l 0.45,-0.74 -0.09,-1.07 -5.6,-65.68 -5.87,-62.37 47.21,-50.86 0.64,-0.69 0.56,-1.06 33.36,-63.61 33.09,-63.76 0.15,-0.28 0.16,-0.39 1.56,-3.7 m 140.38,4.12 c 8.25,24.21 16.65,48.37 24.9,72.58 l 1.05,3.1 2.69,1.81 c 35.24,23.76 70.85,46.98 106.3,70.42 8.01,37.02 15.83,74.07 24.21,111.02 8.33,38.17 17.59,76.16 26.39,114.24 l 0.11,0.46 0.2,0.26 24.88,32.25 -21.53,-34.02 c -6.18,-38.48 -11.9,-77.05 -18.55,-115.44 -6.36,-38.56 -13.32,-77 -20.04,-115.48 l -0.58,-3.28 -2.95,-2.04 c -34.94,-24.2 -69.73,-48.63 -104.86,-72.55 -6.48,-19.24 -12.86,-38.51 -19.31,-57.76 -7.58,-2.09 -15.22,-3.95 -22.91,-5.57 m -194.63,7.87 c -5.83,1.73 -11.62,3.61 -17.37,5.61 -0.98,0.34 -1.96,0.69 -2.93,1.04 -0.08,0.85 -0.17,1.71 -0.25,2.57 -36.9,22.52 -73.53,45.5 -110.23,68.36 l -5.09,3.17 1.08,5.66 14.62,76.44 14.96,75.74 c -2.21,25.03 -3.87,50.12 -5.81,75.18 -1.94,25.37 -3.81,50.74 -5.28,76.16 4.07,-25.13 7.76,-50.31 11.37,-75.49 3.6,-25.19 7.49,-50.35 10.78,-75.57 l 0.09,-0.66 -0.13,-0.89 -11.58,-76.97 -11.13,-70.99 c 36.94,-21.93 73.95,-43.76 110.66,-66.08 l 4.14,-2.51 0.49,-4.86 c 0.53,-5.3 1.07,-10.6 1.61,-15.91 m 53.56,73.79 -3.2,8.64 2.81,-4.06 c 0.13,-1.51 0.26,-3.04 0.39,-4.58" /></clipPath><radialGradient
       id="radialGradient4914"
       spreadMethod="pad"
       gradientTransform="matrix(357.42,-865.181,-865.181,-357.42,1105.41,3328.06)"
       gradientUnits="userSpaceOnUse"
       r="1"
       cy="0"
       cx="0"
       fy="0"
       fx="0"><stop
         id="stop4916"
         offset="0"
         style="stop-opacity:1;stop-color:#f03e1e" /><stop
         id="stop4918"
         offset="1"
         style="stop-opacity:1;stop-color:#c31a37" /></radialGradient><clipPath
       id="clipPath4926"
       clipPathUnits="userSpaceOnUse"><path
         inkscape:connector-curvature="0"
         id="path4928"
         d="m 1593.79,3323.34 c -2.94,11.98 -5.87,24 -8.83,35.95 0.07,9.76 0.22,19.54 0.45,29.32 3.18,-21.73 5.9,-43.49 8.38,-65.27" /></clipPath><radialGradient
       id="radialGradient4930"
       spreadMethod="pad"
       gradientTransform="matrix(357.42,-865.181,-865.181,-357.42,1105.41,3328.06)"
       gradientUnits="userSpaceOnUse"
       r="1"
       cy="0"
       cx="0"
       fy="0"
       fx="0"><stop
         id="stop4932"
         offset="0"
         style="stop-opacity:1;stop-color:#ef3021" /><stop
         id="stop4934"
         offset="1"
         style="stop-opacity:1;stop-color:#ad1933" /></radialGradient><clipPath
       id="clipPath4942"
       clipPathUnits="userSpaceOnUse"><path
         inkscape:connector-curvature="0"
         id="path4944"
         d="m 1480.51,3139.61 c 1.73,9.91 3.49,19.81 5.29,29.7 l 0.51,2.81 1.83,2.05 c 16.16,18.03 32.66,35.76 49.16,53.49 15.86,17.2 32.13,34.03 48.3,50.95 -0.51,26.88 -0.85,53.76 -0.64,80.68 2.96,-11.95 5.89,-23.97 8.83,-35.95 1.79,-15.64 3.44,-31.29 5.04,-46.94 l 0.25,-2.5 -1.92,-2.31 c -15.54,-18.58 -30.96,-37.28 -46.81,-55.59 -15.16,-17.65 -30.33,-35.29 -45.78,-52.67 -0.53,-3.27 -1.07,-6.54 -1.6,-9.81 -2.43,-1.63 -4.87,-3.23 -7.34,-4.81 -4.97,-3.16 -10.01,-6.2 -15.12,-9.1" /></clipPath><radialGradient
       id="radialGradient4946"
       spreadMethod="pad"
       gradientTransform="matrix(357.42,-865.181,-865.181,-357.42,1105.41,3328.06)"
       gradientUnits="userSpaceOnUse"
       r="1"
       cy="0"
       cx="0"
       fy="0"
       fx="0"><stop
         id="stop4948"
         offset="0"
         style="stop-opacity:1;stop-color:#f03e1e" /><stop
         id="stop4950"
         offset="1"
         style="stop-opacity:1;stop-color:#c31a37" /></radialGradient><clipPath
       id="clipPath4958"
       clipPathUnits="userSpaceOnUse"><path
         inkscape:connector-curvature="0"
         id="path4960"
         d="m 1326.09,2510.04 c -44.05,0 -88.07,5.36 -130.83,16.47 -4.29,1.11 -8.58,2.29 -12.84,3.52 8.01,7.14 16,14.28 23.75,21.15 17.05,-6.95 30.95,-9.45 49.3,-11 6.75,11.96 14.08,24.14 21.32,36.29 1.31,-0.25 2.61,-0.48 3.92,-0.71 27.4,-4.81 55.34,-7.21 83.28,-7.21 118,0 236.38,42.79 317.48,127.77 47.48,49.75 80.18,110.86 101.11,176.56 8.59,11.59 16.37,23.74 23.67,34.48 6.67,1.67 14.21,6.07 20.88,7.74 15.17,37.71 31.57,74.19 47.08,111.55 -6.39,-117.2 -48.91,-232.65 -124.37,-322.72 -103.13,-123.09 -263.68,-193.89 -423.75,-193.89 m 482.05,484.13 c 1.59,13.87 2.78,27.75 3.59,41.6 1.12,19.19 1.56,38.47 1.2,57.73 18.53,61.03 29.72,125.91 14.47,187.51 32.34,-70.47 47.92,-147.82 47.66,-225.24 -5.45,8.28 -11.47,17.14 -16,24.49 -2.95,-25.35 -12.17,-49.04 -21.34,-72.85 -2.29,-2.46 -4.58,-4.92 -6.87,-7.38 -7.56,-2.52 -15.14,-4.06 -22.71,-5.86" /></clipPath><radialGradient
       id="radialGradient4962"
       spreadMethod="pad"
       gradientTransform="matrix(357.42,-865.181,-865.181,-357.42,1105.41,3328.06)"
       gradientUnits="userSpaceOnUse"
       r="1"
       cy="0"
       cx="0"
       fy="0"
       fx="0"><stop
         id="stop4964"
         offset="0"
         style="stop-opacity:1;stop-color:#e82823" /><stop
         id="stop4966"
         offset="1"
         style="stop-opacity:1;stop-color:#a71c25" /></radialGradient><clipPath
       id="clipPath4974"
       clipPathUnits="userSpaceOnUse"><path
         inkscape:connector-curvature="0"
         id="path4976"
         d="m 1182.42,2530.03 c -22.14,6.38 -43.79,14.27 -64.83,23.55 13.06,8 26.06,16.09 39.01,24.26 l 35.29,22.13 c 27.53,-10.26 55.95,-18.18 84.9,-23.5 -7.24,-12.15 -14.57,-24.33 -21.32,-36.29 -18.35,1.55 -32.25,4.05 -49.3,11 -7.75,-6.87 -15.74,-14.01 -23.75,-21.15 m -66.99,24.5 c -20.55,9.17 -40.51,19.64 -59.77,31.32 11.32,21.86 22.33,43.86 33.42,65.83 29.46,-19.04 60.75,-35.2 93.33,-48.07 l -28.96,-21.13 c -12.73,-9.23 -25.4,-18.54 -38.02,-27.95 m -61.18,32.18 c -12.92,7.88 -25.54,16.32 -37.79,25.24 6.86,26.1 13.36,52.27 20.01,78.41 14.88,-12.38 30.42,-23.97 46.54,-34.7 -9.63,-22.96 -19.35,-45.89 -28.76,-68.95 m 728.33,286.17 c 1.31,4.11 2.58,8.24 3.8,12.39 5.55,6.11 11.08,12.22 16.6,18.36 l 1.23,1.37 0.27,1.52 c 3.89,22.05 7.57,44.15 11.1,66.28 18.92,23.59 37.97,47.06 56.5,70.99 -11.58,-12.02 -22.99,-24.18 -34.36,-36.38 9.17,23.81 18.39,47.5 21.34,72.85 4.53,-7.35 10.55,-16.21 16,-24.49 -0.04,-9.71 -0.32,-19.42 -0.85,-29.12 -15.51,-37.36 -31.91,-73.84 -47.08,-111.55 -6.67,-1.67 -14.21,-6.07 -20.88,-7.74 -7.3,-10.74 -15.08,-22.89 -23.67,-34.48 m 10.57,37.46 c 6.82,27.55 11.74,55.65 14.99,83.83 7.57,1.8 15.15,3.34 22.71,5.86 -7.19,-7.74 -14.38,-15.49 -21.58,-23.23 l -0.58,-0.61 -0.26,-1.09 c -5.16,-21.46 -10.18,-42.96 -15,-64.49 -0.09,-0.09 -0.19,-0.18 -0.28,-0.27" /></clipPath><radialGradient
       id="radialGradient4978"
       spreadMethod="pad"
       gradientTransform="matrix(357.42,-865.181,-865.181,-357.42,1105.41,3328.06)"
       gradientUnits="userSpaceOnUse"
       r="1"
       cy="0"
       cx="0"
       fy="0"
       fx="0"><stop
         id="stop4980"
         offset="0"
         style="stop-opacity:1;stop-color:#e83321" /><stop
         id="stop4982"
         offset="1"
         style="stop-opacity:1;stop-color:#bd1d27" /></radialGradient><clipPath
       id="clipPath4990"
       clipPathUnits="userSpaceOnUse"><path
         inkscape:connector-curvature="0"
         id="path4992"
         d="m 966.461,2652.97 c -85.672,78.83 -147.41,183.97 -169.32,298.43 6.66,-0.47 13.488,-0.7 20.449,-0.7 15.836,0 32.351,1.19 49.148,3.42 8.133,-30.8 19.102,-60.86 32.914,-89.62 21.621,-45.02 50.047,-86.56 83.684,-123.4 -5.328,-1.72 -10.656,-3.41 -15.949,-5.12 -0.094,-27.84 -0.543,-55.4 -0.926,-83.01" /></clipPath><radialGradient
       id="radialGradient4994"
       spreadMethod="pad"
       gradientTransform="matrix(357.42,-865.181,-865.181,-357.42,1105.41,3328.06)"
       gradientUnits="userSpaceOnUse"
       r="1"
       cy="0"
       cx="0"
       fy="0"
       fx="0"><stop
         id="stop4996"
         offset="0"
         style="stop-opacity:1;stop-color:#e82823" /><stop
         id="stop4998"
         offset="1"
         style="stop-opacity:1;stop-color:#a71c25" /></radialGradient><clipPath
       id="clipPath5006"
       clipPathUnits="userSpaceOnUse"><path
         inkscape:connector-curvature="0"
         id="path5008"
         d="m 1014.47,2613.41 c -16.708,12.29 -32.732,25.5 -48.009,39.56 0.383,27.61 0.832,55.17 0.926,83.01 5.293,1.71 10.621,3.4 15.949,5.12 14.441,-15.82 29.854,-30.78 46.084,-44.77 -4.98,-27.64 -10.15,-55.24 -14.95,-82.92" /></clipPath><radialGradient
       id="radialGradient5010"
       spreadMethod="pad"
       gradientTransform="matrix(357.42,-865.181,-865.181,-357.42,1105.41,3328.06)"
       gradientUnits="userSpaceOnUse"
       r="1"
       cy="0"
       cx="0"
       fy="0"
       fx="0"><stop
         id="stop5012"
         offset="0"
         style="stop-opacity:1;stop-color:#e83321" /><stop
         id="stop5014"
         offset="1"
         style="stop-opacity:1;stop-color:#bd1d27" /></radialGradient><clipPath
       id="clipPath5022"
       clipPathUnits="userSpaceOnUse"><path
         inkscape:connector-curvature="0"
         id="path5024"
         d="m 1117.59,2553.58 c -0.72,0.31 -1.44,0.63 -2.16,0.95 12.62,9.41 25.29,18.72 38.02,27.95 l 28.96,21.13 c 3.14,-1.24 6.31,-2.46 9.48,-3.64 l -35.29,-22.13 c -12.95,-8.17 -25.95,-16.26 -39.01,-24.26 m -61.93,32.27 c -0.47,0.28 -0.94,0.57 -1.41,0.86 9.41,23.06 19.13,45.99 28.76,68.95 2.01,-1.34 4.04,-2.67 6.07,-3.98 -11.09,-21.97 -22.1,-43.97 -33.42,-65.83 m -39.2,26.1 c -0.66,0.49 -1.33,0.97 -1.99,1.46 4.8,27.68 9.97,55.28 14.95,82.92 2.34,-2.01 4.68,-4 7.05,-5.97 -6.65,-26.14 -13.15,-52.31 -20.01,-78.41" /></clipPath><radialGradient
       id="radialGradient5026"
       spreadMethod="pad"
       gradientTransform="matrix(357.42,-865.181,-865.181,-357.42,1105.41,3328.06)"
       gradientUnits="userSpaceOnUse"
       r="1"
       cy="0"
       cx="0"
       fy="0"
       fx="0"><stop
         id="stop5028"
         offset="0"
         style="stop-opacity:1;stop-color:#dd2724" /><stop
         id="stop5030"
         offset="1"
         style="stop-opacity:1;stop-color:#b01d23" /></radialGradient><clipPath
       id="clipPath5038"
       clipPathUnits="userSpaceOnUse"><path
         inkscape:connector-curvature="0"
         id="path5040"
         d="m 1830.85,3000.03 c 2.29,2.46 4.58,4.92 6.87,7.38 -0.73,-1.89 -1.46,-3.78 -2.18,-5.67 -1.56,-0.62 -3.12,-1.19 -4.69,-1.71" /></clipPath><radialGradient
       id="radialGradient5042"
       spreadMethod="pad"
       gradientTransform="matrix(357.42,-865.181,-865.181,-357.42,1105.41,3328.06)"
       gradientUnits="userSpaceOnUse"
       r="1"
       cy="0"
       cx="0"
       fy="0"
       fx="0"><stop
         id="stop5044"
         offset="0"
         style="stop-opacity:1;stop-color:#dd2225" /><stop
         id="stop5046"
         offset="1"
         style="stop-opacity:1;stop-color:#9d1b20" /></radialGradient><clipPath
       id="clipPath5054"
       clipPathUnits="userSpaceOnUse"><path
         inkscape:connector-curvature="0"
         id="path5056"
         d="m 1786.38,2885.27 c 2.44,8.3 4.69,16.66 6.77,25.07 0.09,0.09 0.19,0.18 0.28,0.27 4.82,21.53 9.84,43.03 15,64.49 l 0.26,1.09 0.58,0.61 c 7.2,7.74 14.39,15.49 21.58,23.23 1.57,0.52 3.13,1.09 4.69,1.71 0.72,1.89 1.45,3.78 2.18,5.67 11.37,12.2 22.78,24.36 34.36,36.38 -18.53,-23.93 -37.58,-47.4 -56.5,-70.99 -3.53,-22.13 -7.21,-44.23 -11.1,-66.28 l -0.27,-1.52 -1.23,-1.37 c -5.52,-6.14 -11.05,-12.25 -16.6,-18.36" /></clipPath><radialGradient
       id="radialGradient5058"
       spreadMethod="pad"
       gradientTransform="matrix(357.42,-865.181,-865.181,-357.42,1105.41,3328.06)"
       gradientUnits="userSpaceOnUse"
       r="1"
       cy="0"
       cx="0"
       fy="0"
       fx="0"><stop
         id="stop5060"
         offset="0"
         style="stop-opacity:1;stop-color:#dd2724" /><stop
         id="stop5062"
         offset="1"
         style="stop-opacity:1;stop-color:#b01d23" /></radialGradient><clipPath
       id="clipPath5070"
       clipPathUnits="userSpaceOnUse"><path
         inkscape:connector-curvature="0"
         id="path5072"
         d="m 1413.74,2747.24 c 1.24,2.57 2.48,5.13 3.72,7.7 4.97,-2.08 9.95,-4.07 14.93,-5.97 -6.2,-0.72 -12.42,-1.3 -18.65,-1.73" /></clipPath><radialGradient
       id="radialGradient5074"
       spreadMethod="pad"
       gradientTransform="matrix(357.42,-865.181,-865.181,-357.42,1105.41,3328.06)"
       gradientUnits="userSpaceOnUse"
       r="1"
       cy="0"
       cx="0"
       fy="0"
       fx="0"><stop
         id="stop5076"
         offset="0"
         style="stop-opacity:1;stop-color:#ef3021" /><stop
         id="stop5078"
         offset="1"
         style="stop-opacity:1;stop-color:#ad1933" /></radialGradient><clipPath
       id="clipPath5086"
       clipPathUnits="userSpaceOnUse"><path
         inkscape:connector-curvature="0"
         id="path5088"
         d="m 1386.64,2746.3 c -10.72,0 -21.43,0.45 -32.1,1.35 5.87,5.68 11.73,11.35 17.6,17.03 l 77.27,-8.13 18.48,-1.86 c -11.75,-2.43 -23.6,-4.34 -35.5,-5.72 -4.98,1.9 -9.96,3.89 -14.93,5.97 -1.24,-2.57 -2.48,-5.13 -3.72,-7.7 -9.03,-0.62 -18.06,-0.94 -27.1,-0.94" /></clipPath><radialGradient
       id="radialGradient5090"
       spreadMethod="pad"
       gradientTransform="matrix(357.42,-865.181,-865.181,-357.42,1105.41,3328.06)"
       gradientUnits="userSpaceOnUse"
       r="1"
       cy="0"
       cx="0"
       fy="0"
       fx="0"><stop
         id="stop5092"
         offset="0"
         style="stop-opacity:1;stop-color:#f03e1e" /><stop
         id="stop5094"
         offset="1"
         style="stop-opacity:1;stop-color:#c31a37" /></radialGradient><clipPath
       id="clipPath5102"
       clipPathUnits="userSpaceOnUse"><path
         inkscape:connector-curvature="0"
         id="path5104"
         d="m 1632.13,2853.43 c -29.16,36.73 -60.09,73.03 -86.29,111.92 4.99,30 6.08,68.12 11.07,98.12 0.47,-0.03 0.93,-0.04 1.38,-0.04 3.35,0 6.45,0.78 9.56,1.55 3.09,0.79 6.19,1.57 9.55,1.57 0.45,0 0.91,-0.02 1.38,-0.05 -13.72,34.51 -31.12,70.81 -44.84,105.32 3.39,4.75 6.74,9.39 10.09,13.95 71.18,64.9 114.16,156.98 115.96,254.73 60.06,-45.06 102.57,-111.09 126.38,-182.3 17.71,-52.97 25.52,-108.75 26.56,-164.7 -1.49,-4.93 -3.04,-9.84 -4.62,-14.71 -25.22,-77.7 -68.39,-150.23 -126.21,-207.59 -1.68,0.18 -3.33,0.36 -4.97,0.55 -13.88,-8.88 -29.11,-13.97 -45,-18.32" /></clipPath><radialGradient
       id="radialGradient5106"
       spreadMethod="pad"
       gradientTransform="matrix(357.42,-865.181,-865.181,-357.42,1105.41,3328.06)"
       gradientUnits="userSpaceOnUse"
       r="1"
       cy="0"
       cx="0"
       fy="0"
       fx="0"><stop
         id="stop5108"
         offset="0"
         style="stop-opacity:1;stop-color:#ef3021" /><stop
         id="stop5110"
         offset="1"
         style="stop-opacity:1;stop-color:#ad1933" /></radialGradient><clipPath
       id="clipPath5118"
       clipPathUnits="userSpaceOnUse"><path
         inkscape:connector-curvature="0"
         id="path5120"
         d="m 1332,2750.24 c -22.49,3.29 -44.68,8.68 -66.23,16.27 -3.98,1.4 -7.94,2.88 -11.86,4.44 5.9,6.03 11.78,12.06 17.66,18.11 l 1.23,1.27 0.33,2.01 10.56,62.85 9.94,61.04 43.28,69.02 43.6,70.74 0.55,0.89 0.38,1.09 c 5.48,15.79 10.84,31.62 16.15,47.46 28.9,7.98 56.82,19.36 82.92,34.18 -2.5,-14.39 -4.92,-28.79 -7.24,-43.21 -4,-23.59 -7.65,-47.24 -11.19,-70.91 -19.25,-23.95 -38.29,-48.07 -56.94,-72.52 -19.24,-25.07 -38.17,-50.39 -56.4,-76.3 22.34,22.47 43.96,45.53 65.27,68.86 21.39,23.26 42.38,46.86 63.15,70.65 l 1.44,1.65 0.49,2.51 c 4.68,24.22 9.25,48.46 13.46,72.75 3.67,20.11 7.11,40.26 10.42,60.43 14.54,9.78 28.26,20.59 41.06,32.25 -3.35,-4.56 -6.7,-9.2 -10.09,-13.95 13.72,-34.51 31.12,-70.81 44.84,-105.32 -0.47,0.03 -0.93,0.05 -1.38,0.05 -3.36,0 -6.46,-0.78 -9.55,-1.57 -3.11,-0.77 -6.21,-1.55 -9.56,-1.55 -0.45,0 -0.91,0.01 -1.38,0.04 -4.99,-30 -6.08,-68.12 -11.07,-98.12 26.2,-38.89 57.13,-75.19 86.29,-111.92 15.89,4.35 31.12,9.44 45,18.32 1.64,-0.19 3.29,-0.37 4.97,-0.55 -5.45,-5.4 -11.03,-10.67 -16.73,-15.8 -24.07,-2.23 -47.81,-5.89 -71.5,-9.77 -22.15,-3.82 -44.19,-8.12 -66.15,-12.71 l -27.25,20.31 -31.05,22.2 -5.28,3.78 -5.28,-3.26 c -20.78,-12.82 -41.34,-26.02 -61.66,-39.62 -20.19,-13.82 -40.28,-27.81 -59.6,-43.11 22.73,9.52 44.69,20.35 66.55,31.33 19.8,10.23 39.39,20.83 58.82,31.7 l 25.72,-19.16 31.06,-22.18 3.72,-2.66 4.13,1.07 c 23.21,5.97 46.34,12.29 69.36,19.11 22.93,7.04 45.83,14.28 68.38,22.95 -14.55,-13.07 -29.92,-25.21 -46.09,-36.28 l -22.91,-5.23 -1.71,-0.39 -1.55,-1.07 -50.65,-34.9 c -7.16,-2.94 -14.42,-5.7 -21.73,-8.24 l -69.37,6.73 -81.58,7.54 -4.42,0.4 -3,-3.03 c -10.1,-10.23 -20.22,-20.44 -30.33,-30.67 m 153.86,177.42 33.72,-37.5 79.5,-13.49 -113.22,50.99 m 51.22,210 -31.67,-131.66 37.06,59.16 -5.39,72.5 M 1243.26,2775.4 c -14.49,6.35 -28.56,13.76 -42.03,22.09 l 5.94,48.09 10.09,85.81 47.95,80.41 2.57,4.31 -1.94,4.62 -31.54,75.01 c 10.72,-1.59 21.51,-2.74 32.33,-3.45 l 17.95,-48.5 0,47.71 c 2.83,-0.06 5.67,-0.09 8.51,-0.09 27.42,0 54.83,2.81 81.59,8.45 -3.92,-11.49 -7.8,-23 -11.62,-34.52 l -42.48,-70.12 -42.52,-71.4 -0.97,-1.62 -0.2,-1.63 -8.09,-63.21 -7.57,-61.54 c -6.01,-6.79 -12,-13.6 -17.97,-20.42 m -57.36,32.15 c -17.82,12.38 -34.48,26.44 -49.66,41.91 1.77,27.47 3.44,54.94 5.14,82.41 l 46.06,84.43 1.43,2.6 -0.29,3.06 c -2.61,28.62 -5.6,57.19 -8.53,85.77 10.17,-3.02 20.45,-5.61 30.83,-7.8 l 4.1,-8.22 30.49,-74.04 -45.87,-78.2 -1.08,-1.85 -0.21,-2.03 -8.71,-88.11 -3.7,-39.93" /></clipPath><radialGradient
       id="radialGradient5122"
       spreadMethod="pad"
       gradientTransform="matrix(357.42,-865.181,-865.181,-357.42,1105.41,3328.06)"
       gradientUnits="userSpaceOnUse"
       r="1"
       cy="0"
       cx="0"
       fy="0"
       fx="0"><stop
         id="stop5124"
         offset="0"
         style="stop-opacity:1;stop-color:#f03e1e" /><stop
         id="stop5126"
         offset="1"
         style="stop-opacity:1;stop-color:#c31a37" /></radialGradient><clipPath
       id="clipPath5134"
       clipPathUnits="userSpaceOnUse"><path
         inkscape:connector-curvature="0"
         id="path5136"
         d="m 1083.86,2918.71 c -17.45,30.77 -29.76,64.32 -35.51,99.43 -48.885,-31.54 -117.256,-55.47 -181.612,-64.02 -34.05,128.95 -18.441,271.15 45.797,388.29 23.399,-48.77 55.844,-93.76 94.925,-131.71 0.82,-10.72 1.65,-21.48 2.53,-32.31 48.69,-30.53 97.54,-55.53 149.87,-79.28 -1.96,-32.82 -2.34,-66.02 -3.5,-99.04 l -20.29,-37.97 c -20.83,-4.51 -40.96,-7.25 -62.39,-13.25 4.44,-6.67 7.34,-13.75 11.78,-20.42 -0.53,-3.24 -1.06,-6.48 -1.6,-9.72" /></clipPath><radialGradient
       id="radialGradient5138"
       spreadMethod="pad"
       gradientTransform="matrix(357.42,-865.181,-865.181,-357.42,1105.41,3328.06)"
       gradientUnits="userSpaceOnUse"
       r="1"
       cy="0"
       cx="0"
       fy="0"
       fx="0"><stop
         id="stop5140"
         offset="0"
         style="stop-opacity:1;stop-color:#ef3021" /><stop
         id="stop5142"
         offset="1"
         style="stop-opacity:1;stop-color:#ad1933" /></radialGradient><clipPath
       id="clipPath5150"
       clipPathUnits="userSpaceOnUse"><path
         inkscape:connector-curvature="0"
         id="path5152"
         d="m 1119.92,2867.3 c -13.62,15.99 -25.74,33.22 -36.06,51.41 0.54,3.24 1.07,6.48 1.6,9.72 -4.44,6.67 -7.34,13.75 -11.78,20.42 21.43,6 41.56,8.74 62.39,13.25 l -12.31,-23.05 -1.04,-1.95 -0.08,-2.06 c -0.91,-22.58 -1.84,-45.16 -2.72,-67.74 m 36.44,132.77 c 1.16,33.02 1.54,66.22 3.5,99.04 -52.33,23.75 -101.18,48.75 -149.87,79.28 -0.88,10.83 -1.71,21.59 -2.53,32.31 43.6,-42.36 95.47,-75.95 152.29,-96.32 2.9,-30.46 5.68,-60.93 8.86,-91.37 l -12.25,-22.94" /></clipPath><radialGradient
       id="radialGradient5154"
       spreadMethod="pad"
       gradientTransform="matrix(357.42,-865.181,-865.181,-357.42,1105.41,3328.06)"
       gradientUnits="userSpaceOnUse"
       r="1"
       cy="0"
       cx="0"
       fy="0"
       fx="0"><stop
         id="stop5156"
         offset="0"
         style="stop-opacity:1;stop-color:#f03e1e" /><stop
         id="stop5158"
         offset="1"
         style="stop-opacity:1;stop-color:#c31a37" /></radialGradient><clipPath
       id="clipPath5166"
       clipPathUnits="userSpaceOnUse"><path
         inkscape:connector-curvature="0"
         id="path5168"
         d="m 1354.54,2747.65 c -7.55,0.63 -15.05,1.49 -22.54,2.59 10.11,10.23 20.23,20.44 30.33,30.67 l 3,3.03 4.42,-0.4 81.58,-7.54 69.37,-6.73 c -17.27,-6.02 -34.93,-10.89 -52.81,-14.58 l -18.48,1.86 -77.27,8.13 c -5.87,-5.68 -11.73,-11.35 -17.6,-17.03 m -100.63,23.3 c -3.58,1.42 -7.12,2.9 -10.65,4.45 5.97,6.82 11.96,13.63 17.97,20.42 l 7.57,61.54 8.09,63.21 0.2,1.63 0.97,1.62 42.52,71.4 42.48,70.12 c 3.82,11.52 7.7,23.03 11.62,34.52 7.69,1.62 15.33,3.48 22.91,5.57 -5.31,-15.84 -10.67,-31.67 -16.15,-47.46 l -0.38,-1.09 -0.55,-0.89 -43.6,-70.74 -43.28,-69.02 -9.94,-61.04 -10.56,-62.85 -0.33,-2.01 -1.23,-1.27 c -5.88,-6.05 -11.76,-12.08 -17.66,-18.11 m 288.52,6.56 50.65,34.9 1.55,1.07 1.71,0.39 22.91,5.23 c -6,-4.12 -12.12,-8.09 -18.35,-11.9 -18.63,-11.42 -38.22,-21.35 -58.47,-29.69 m -204.83,15.71 c 19.32,15.3 39.41,29.29 59.6,43.11 20.32,13.6 40.88,26.8 61.66,39.62 l 5.28,3.26 5.28,-3.78 31.05,-22.2 27.25,-20.31 c 21.96,4.59 44,8.89 66.15,12.71 23.69,3.88 47.43,7.54 71.5,9.77 -0.01,0 -0.02,-0.02 -0.03,-0.02 -22.55,-8.67 -45.45,-15.91 -68.38,-22.95 -23.02,-6.82 -46.15,-13.14 -69.36,-19.11 l -4.13,-1.07 -3.72,2.66 -31.06,22.18 -25.72,19.16 c -19.43,-10.87 -39.02,-21.47 -58.82,-31.7 -21.86,-10.98 -43.82,-21.81 -66.55,-31.33 m -136.37,4.27 c -5.2,3.22 -10.31,6.57 -15.33,10.06 l 3.7,39.93 8.71,88.11 0.21,2.03 1.08,1.85 45.87,78.2 -30.49,74.04 -4.1,8.22 c 7.76,-1.63 15.57,-3.02 23.42,-4.19 l 31.54,-75.01 1.94,-4.62 -2.57,-4.31 -47.95,-80.41 -10.09,-85.81 -5.94,-48.09" /></clipPath><radialGradient
       id="radialGradient5170"
       spreadMethod="pad"
       gradientTransform="matrix(357.42,-865.181,-865.181,-357.42,1105.41,3328.06)"
       gradientUnits="userSpaceOnUse"
       r="1"
       cy="0"
       cx="0"
       fy="0"
       fx="0"><stop
         id="stop5172"
         offset="0"
         style="stop-opacity:1;stop-color:#e32d22" /><stop
         id="stop5174"
         offset="1"
         style="stop-opacity:1;stop-color:#b61d24" /></radialGradient><clipPath
       id="clipPath5182"
       clipPathUnits="userSpaceOnUse"><path
         inkscape:connector-curvature="0"
         id="path5184"
         d="m 1136.07,2962.1 20.29,37.97 c -0.39,-11.15 -0.87,-22.28 -1.54,-33.36 -6.35,-1.78 -12.58,-3.28 -18.75,-4.61" /></clipPath><radialGradient
       id="radialGradient5186"
       spreadMethod="pad"
       gradientTransform="matrix(357.42,-865.181,-865.181,-357.42,1105.41,3328.06)"
       gradientUnits="userSpaceOnUse"
       r="1"
       cy="0"
       cx="0"
       fy="0"
       fx="0"><stop
         id="stop5188"
         offset="0"
         style="stop-opacity:1;stop-color:#e32523" /><stop
         id="stop5190"
         offset="1"
         style="stop-opacity:1;stop-color:#a21c21" /></radialGradient><clipPath
       id="clipPath5198"
       clipPathUnits="userSpaceOnUse"><path
         inkscape:connector-curvature="0"
         id="path5200"
         d="m 1136.24,2849.46 c -5.65,5.76 -11.1,11.71 -16.32,17.84 0.88,22.58 1.81,45.16 2.72,67.74 l 0.08,2.06 1.04,1.95 12.31,23.05 c 6.17,1.33 12.4,2.83 18.75,4.61 0.67,11.08 1.15,22.21 1.54,33.36 l 12.25,22.94 c -3.18,30.44 -5.96,60.91 -8.86,91.37 0.97,-0.35 1.95,-0.7 2.93,-1.04 5.75,-2 11.54,-3.88 17.37,-5.61 2.93,-28.58 5.92,-57.15 8.53,-85.77 l 0.29,-3.06 -1.43,-2.6 -46.06,-84.43 c -1.7,-27.47 -3.37,-54.94 -5.14,-82.41 m 462.84,27.21 -79.5,13.49 -33.72,37.5 113.22,-50.99 m -250.34,0 c 18.23,25.91 37.16,51.23 56.4,76.3 18.65,24.45 37.69,48.57 56.94,72.52 3.54,23.67 7.19,47.32 11.19,70.91 2.32,14.42 4.74,28.82 7.24,43.21 5.11,2.9 10.15,5.94 15.12,9.1 2.47,1.58 4.91,3.18 7.34,4.81 -3.31,-20.17 -6.75,-40.32 -10.42,-60.43 -4.21,-24.29 -8.78,-48.53 -13.46,-72.75 l -0.49,-2.51 -1.44,-1.65 c -20.77,-23.79 -41.76,-47.39 -63.15,-70.65 -21.31,-23.33 -42.93,-46.39 -65.27,-68.86 m 156.67,129.33 31.67,131.66 5.39,-72.5 -37.06,-59.16 m -220.83,37.79 -17.95,48.5 c 5.98,-0.4 11.96,-0.66 17.95,-0.79 l 0,-47.71" /></clipPath><radialGradient
       id="radialGradient5202"
       spreadMethod="pad"
       gradientTransform="matrix(357.42,-865.181,-865.181,-357.42,1105.41,3328.06)"
       gradientUnits="userSpaceOnUse"
       r="1"
       cy="0"
       cx="0"
       fy="0"
       fx="0"><stop
         id="stop5204"
         offset="0"
         style="stop-opacity:1;stop-color:#e32d22" /><stop
         id="stop5206"
         offset="1"
         style="stop-opacity:1;stop-color:#b61d24" /></radialGradient><clipPath
       id="clipPath5214"
       clipPathUnits="userSpaceOnUse"><path
         inkscape:connector-curvature="0"
         id="path5216"
         d="m 1363.99,2568.55 c -27.94,0 -55.88,2.4 -83.28,7.21 -1.31,0.23 -2.61,0.46 -3.92,0.71 5.1,8.56 10.15,17.1 14.91,25.54 12.09,-5.28 23.01,-5.7 35.1,-10.99 33.94,49.37 60.89,102.33 86.94,156.22 6.23,0.43 12.45,1.01 18.65,1.73 44.93,-17.11 90.49,-26.58 138.72,-26.58 3.1,0 6.21,0.04 9.33,0.12 11.5,24.41 22.54,49.08 29.9,75.03 l 56.22,14.02 65.71,16.67 2.41,0.61 1.51,1.65 c 0.09,0.1 0.19,0.19 0.28,0.29 18.03,8.05 33.01,24.42 46.11,42.1 -20.93,-65.7 -53.63,-126.81 -101.11,-176.56 -81.1,-84.98 -199.48,-127.77 -317.48,-127.77" /></clipPath><radialGradient
       id="radialGradient5218"
       spreadMethod="pad"
       gradientTransform="matrix(357.42,-865.181,-865.181,-357.42,1105.41,3328.06)"
       gradientUnits="userSpaceOnUse"
       r="1"
       cy="0"
       cx="0"
       fy="0"
       fx="0"><stop
         id="stop5220"
         offset="0"
         style="stop-opacity:1;stop-color:#dd2225" /><stop
         id="stop5222"
         offset="1"
         style="stop-opacity:1;stop-color:#9c1b20" /></radialGradient><clipPath
       id="clipPath5230"
       clipPathUnits="userSpaceOnUse"><path
         inkscape:connector-curvature="0"
         id="path5232"
         d="m 1276.79,2576.47 c -28.95,5.32 -57.37,13.24 -84.9,23.5 l 21.41,13.43 0.27,0.17 0.46,0.43 c 27.1,25.41 54.19,50.83 81.01,76.52 19.97,18.9 39.74,38.01 59.5,57.13 10.67,-0.9 21.38,-1.35 32.1,-1.35 9.04,0 18.07,0.32 27.1,0.94 -26.05,-53.89 -53,-106.85 -86.94,-156.22 -12.09,5.29 -23.01,5.71 -35.1,10.99 -4.76,-8.44 -9.81,-16.98 -14.91,-25.54 m 109.45,140.36 -108.33,-94.17 50.83,11.67 57.5,82.5 m -203.83,-113.22 c -32.58,12.87 -63.87,29.03 -93.33,48.07 1.51,2.99 3.02,5.98 4.54,8.97 33.8,30.49 67.22,61.38 100.45,92.47 l 1.89,1.77 0.34,2.8 4.93,39.8 c 13.47,-8.33 27.54,-15.74 42.03,-22.09 -12.12,-13.85 -24.17,-27.77 -36.14,-41.76 -18.39,-21.34 -36.84,-42.63 -54.86,-64.31 20.25,19.62 40.07,39.63 59.96,59.58 13.98,13.94 27.88,27.95 41.69,42.04 3.92,-1.56 7.88,-3.04 11.86,-4.44 21.55,-7.59 43.74,-12.98 66.23,-16.27 -15.99,-16.19 -31.96,-32.41 -47.79,-48.77 -25.92,-26.45 -51.57,-53.18 -77.2,-79.92 l -24.6,-17.94 m -99.4,52.05 c -16.12,10.73 -31.66,22.32 -46.54,34.7 0.97,3.83 1.95,7.65 2.93,11.48 15.01,12.47 29.72,25.28 44.6,37.9 l 45.35,39.01 2.21,1.9 0.23,3.23 c 1.58,21.86 3.04,43.72 4.45,65.58 15.18,-15.47 31.84,-29.53 49.66,-41.91 l -4.24,-45.7 c -31.58,-31.71 -62.98,-63.62 -94.01,-95.92 l -0.61,-0.63 -0.23,-0.55 c -1.27,-3.03 -2.53,-6.06 -3.8,-9.09 m 488.1,66.73 c -48.23,0 -93.79,9.47 -138.72,26.58 11.9,1.38 23.75,3.29 35.5,5.72 l 63.03,-6.35 3.65,-0.37 2.99,2.09 65.07,45.55 7.71,1.93 c -7.36,-25.95 -18.4,-50.62 -29.9,-75.03 -3.12,-0.08 -6.23,-0.12 -9.33,-0.12 m 165.36,108.39 c 16.66,18.14 33.34,36.26 49.91,54.49 -1.22,-4.15 -2.49,-8.28 -3.8,-12.39 -13.1,-17.68 -28.08,-34.05 -46.11,-42.1" /></clipPath><radialGradient
       id="radialGradient5234"
       spreadMethod="pad"
       gradientTransform="matrix(357.42,-865.181,-865.181,-357.42,1105.41,3328.06)"
       gradientUnits="userSpaceOnUse"
       r="1"
       cy="0"
       cx="0"
       fy="0"
       fx="0"><stop
         id="stop5236"
         offset="0"
         style="stop-opacity:1;stop-color:#dc2724" /><stop
         id="stop5238"
         offset="1"
         style="stop-opacity:1;stop-color:#b01d23" /></radialGradient><clipPath
       id="clipPath5246"
       clipPathUnits="userSpaceOnUse"><path
         inkscape:connector-curvature="0"
         id="path5248"
         d="m 983.336,2741.1 c -33.637,36.84 -62.063,78.38 -83.684,123.4 -13.812,28.76 -24.781,58.82 -32.914,89.62 64.356,8.55 132.727,32.48 181.612,64.02 5.75,-35.11 18.06,-68.66 35.51,-99.43 -8.11,-48.96 -16.9,-98.02 -24.92,-146.97 -23.58,-13.4 -49.65,-22.27 -75.604,-30.64" /></clipPath><radialGradient
       id="radialGradient5250"
       spreadMethod="pad"
       gradientTransform="matrix(357.42,-865.181,-865.181,-357.42,1105.41,3328.06)"
       gradientUnits="userSpaceOnUse"
       r="1"
       cy="0"
       cx="0"
       fy="0"
       fx="0"><stop
         id="stop5252"
         offset="0"
         style="stop-opacity:1;stop-color:#dd2225" /><stop
         id="stop5254"
         offset="1"
         style="stop-opacity:1;stop-color:#9c1b20" /></radialGradient><clipPath
       id="clipPath5262"
       clipPathUnits="userSpaceOnUse"><path
         inkscape:connector-curvature="0"
         id="path5264"
         d="m 1029.42,2696.33 c -16.23,13.99 -31.643,28.95 -46.084,44.77 25.954,8.37 52.024,17.24 75.604,30.64 8.02,48.95 16.81,98.01 24.92,146.97 10.32,-18.19 22.44,-35.42 36.06,-51.41 -1.03,-26.57 -2,-53.15 -2.81,-79.73 l -41.3,-38.72 c -14.45,-13.74 -29.09,-27.28 -43.39,-41.18 l -1.17,-1.13 -0.22,-1.26 c -0.53,-2.98 -1.07,-5.97 -1.61,-8.95 m 499.84,72.11 -8.56,0.83 c 7.31,2.54 14.57,5.3 21.73,8.24 l -13.17,-9.07" /></clipPath><radialGradient
       id="radialGradient5266"
       spreadMethod="pad"
       gradientTransform="matrix(357.42,-865.181,-865.181,-357.42,1105.41,3328.06)"
       gradientUnits="userSpaceOnUse"
       r="1"
       cy="0"
       cx="0"
       fy="0"
       fx="0"><stop
         id="stop5268"
         offset="0"
         style="stop-opacity:1;stop-color:#dc2724" /><stop
         id="stop5270"
         offset="1"
         style="stop-opacity:1;stop-color:#b01d23" /></radialGradient><clipPath
       id="clipPath5278"
       clipPathUnits="userSpaceOnUse"><path
         inkscape:connector-curvature="0"
         id="path5280"
         d="m 1629.03,2821.33 c 1.58,1.38 3.08,2.74 4.44,4.1 2.22,-0.58 4.46,-1.1 6.7,-1.56 l -11.14,-2.54 m 92.93,47.57 c -13.58,0 -27.23,0.97 -39.86,2.3 57.82,57.36 100.99,129.89 126.21,207.59 1.58,4.87 3.13,9.78 4.62,14.71 0.36,-19.26 -0.08,-38.54 -1.2,-57.73 -0.81,-13.85 -2,-27.73 -3.59,-41.6 -5.95,-1.41 -11.9,-2.98 -17.84,-5.33 -6.95,-34.83 -14.87,-68.69 -22.02,-103.32 -4.8,-4.81 -9.59,-9.63 -14.38,-14.46 -10.23,-1.54 -21.06,-2.16 -31.94,-2.16" /></clipPath><radialGradient
       id="radialGradient5282"
       spreadMethod="pad"
       gradientTransform="matrix(357.42,-865.181,-865.181,-357.42,1105.41,3328.06)"
       gradientUnits="userSpaceOnUse"
       r="1"
       cy="0"
       cx="0"
       fy="0"
       fx="0"><stop
         id="stop5284"
         offset="0"
         style="stop-opacity:1;stop-color:#dd2225" /><stop
         id="stop5286"
         offset="1"
         style="stop-opacity:1;stop-color:#9c1b20" /></radialGradient><clipPath
       id="clipPath5294"
       clipPathUnits="userSpaceOnUse"><path
         inkscape:connector-curvature="0"
         id="path5296"
         d="m 1619.25,2819.1 c 16.17,11.07 31.54,23.21 46.09,36.28 0.03,0.01 0.05,0.02 0.07,0.02 -0.01,0 -0.03,0 -0.04,0 5.7,5.13 11.28,10.4 16.73,15.8 12.63,-1.33 26.28,-2.3 39.86,-2.3 10.88,0 21.71,0.62 31.94,2.16 -9.18,-9.25 -18.34,-18.52 -27.51,-27.78 l -63.98,-14.33 -22.24,-5.08 c -2.24,0.46 -4.48,0.98 -6.7,1.56 -1.36,-1.36 -2.86,-2.72 -4.44,-4.1 l -9.78,-2.23 m 149.03,66.42 c 7.15,34.63 15.07,68.49 22.02,103.32 5.94,2.35 11.89,3.92 17.84,5.33 -3.25,-28.18 -8.17,-56.28 -14.99,-83.83 -8.32,-8.24 -16.61,-16.52 -24.87,-24.82" /></clipPath><radialGradient
       id="radialGradient5298"
       spreadMethod="pad"
       gradientTransform="matrix(357.42,-865.181,-865.181,-357.42,1105.41,3328.06)"
       gradientUnits="userSpaceOnUse"
       r="1"
       cy="0"
       cx="0"
       fy="0"
       fx="0"><stop
         id="stop5300"
         offset="0"
         style="stop-opacity:1;stop-color:#dc2724" /><stop
         id="stop5302"
         offset="1"
         style="stop-opacity:1;stop-color:#b01d23" /></radialGradient><clipPath
       id="clipPath5310"
       clipPathUnits="userSpaceOnUse"><path
         inkscape:connector-curvature="0"
         id="path5312"
         d="m 1191.89,2599.97 c -3.17,1.18 -6.34,2.4 -9.48,3.64 l 24.6,17.94 c 25.63,26.74 51.28,53.47 77.2,79.92 15.83,16.36 31.8,32.58 47.79,48.77 7.49,-1.1 14.99,-1.96 22.54,-2.59 -19.76,-19.12 -39.53,-38.23 -59.5,-57.13 -26.82,-25.69 -53.91,-51.11 -81.01,-76.52 l -0.46,-0.43 -0.27,-0.17 -21.41,-13.43 m 86.02,22.69 108.33,94.17 -57.5,-82.5 -50.83,-11.67 m -188.83,29.02 c -2.03,1.31 -4.06,2.64 -6.07,3.98 1.27,3.03 2.53,6.06 3.8,9.09 l 0.23,0.55 0.61,0.63 c 31.03,32.3 62.43,64.21 94.01,95.92 l 4.24,45.7 c 5.02,-3.49 10.13,-6.84 15.33,-10.06 l -4.93,-39.8 -0.34,-2.8 -1.89,-1.77 c -33.23,-31.09 -66.65,-61.98 -100.45,-92.47 -1.52,-2.99 -3.03,-5.98 -4.54,-8.97 m 63.18,17.65 c 18.02,21.68 36.47,42.97 54.86,64.31 11.97,13.99 24.02,27.91 36.14,41.76 3.53,-1.55 7.07,-3.03 10.65,-4.45 -13.81,-14.09 -27.71,-28.1 -41.69,-42.04 -19.89,-19.95 -39.71,-39.96 -59.96,-59.58 m -115.79,21.03 c -2.37,1.97 -4.71,3.96 -7.05,5.97 0.54,2.98 1.08,5.97 1.61,8.95 l 0.22,1.26 1.17,1.13 c 14.3,13.9 28.94,27.44 43.39,41.18 l 41.3,38.72 c 0.81,26.58 1.78,53.16 2.81,79.73 5.22,-6.13 10.67,-12.08 16.32,-17.84 -1.41,-21.86 -2.87,-43.72 -4.45,-65.58 l -0.23,-3.23 -2.21,-1.9 -45.35,-39.01 c -14.88,-12.62 -29.59,-25.43 -44.6,-37.9 -0.98,-3.83 -1.96,-7.65 -2.93,-11.48" /></clipPath><radialGradient
       id="radialGradient5314"
       spreadMethod="pad"
       gradientTransform="matrix(357.42,-865.181,-865.181,-357.42,1105.41,3328.06)"
       gradientUnits="userSpaceOnUse"
       r="1"
       cy="0"
       cx="0"
       fy="0"
       fx="0"><stop
         id="stop5316"
         offset="0"
         style="stop-opacity:1;stop-color:#d12125" /><stop
         id="stop5318"
         offset="1"
         style="stop-opacity:1;stop-color:#a51c21" /></radialGradient><clipPath
       id="clipPath5326"
       clipPathUnits="userSpaceOnUse"><path
         inkscape:connector-curvature="0"
         id="path5328"
         d="m 1610.34,2797.54 c 0.23,0.8 0.45,1.6 0.67,2.41 2.3,8.38 10.87,15.1 18.02,21.38 l 11.14,2.54 c 10.85,-2.25 21.94,-3.24 33.07,-3.24 17.52,0 35.15,2.46 52.16,6.41 3.81,0.89 7.5,2.15 11.07,3.74 -0.09,-0.1 -0.19,-0.19 -0.28,-0.29 l -1.51,-1.65 -2.41,-0.61 -65.71,-16.67 -56.22,-14.02 m 143.56,73.52 c 4.79,4.83 9.58,9.65 14.38,14.46 -0.84,-4.04 -1.66,-8.09 -2.48,-12.16 -3.84,-0.92 -7.82,-1.68 -11.9,-2.3" /></clipPath><radialGradient
       id="radialGradient5330"
       spreadMethod="pad"
       gradientTransform="matrix(357.42,-865.181,-865.181,-357.42,1105.41,3328.06)"
       gradientUnits="userSpaceOnUse"
       r="1"
       cy="0"
       cx="0"
       fy="0"
       fx="0"><stop
         id="stop5332"
         offset="0"
         style="stop-opacity:1;stop-color:#d11e25" /><stop
         id="stop5334"
         offset="1"
         style="stop-opacity:1;stop-color:#941a1f" /></radialGradient><clipPath
       id="clipPath5342"
       clipPathUnits="userSpaceOnUse"><path
         inkscape:connector-curvature="0"
         id="path5344"
         d="m 1534.57,2747.97 -3.65,0.37 -63.03,6.35 c 17.88,3.69 35.54,8.56 52.81,14.58 l 8.56,-0.83 13.17,9.07 c 20.25,8.34 39.84,18.27 58.47,29.69 6.23,3.81 12.35,7.78 18.35,11.9 l 9.78,2.23 c -7.15,-6.28 -15.72,-13 -18.02,-21.38 -0.22,-0.81 -0.44,-1.61 -0.67,-2.41 l -7.71,-1.93 -65.07,-45.55 -2.99,-2.09 m 138.67,72.66 c -11.13,0 -22.22,0.99 -33.07,3.24 l 22.24,5.08 63.98,14.33 c 9.17,9.26 18.33,18.53 27.51,27.78 4.08,0.62 8.06,1.38 11.9,2.3 0.82,4.07 1.64,8.12 2.48,12.16 8.26,8.3 16.55,16.58 24.87,24.82 -2.08,-8.41 -4.33,-16.77 -6.77,-25.07 -16.57,-18.23 -33.25,-36.35 -49.91,-54.49 -3.57,-1.59 -7.26,-2.85 -11.07,-3.74 -17.01,-3.95 -34.64,-6.41 -52.16,-6.41 m -7.9,34.75 c 0.01,0 0.02,0.02 0.03,0.02 0.01,0 0.03,0 0.04,0 -0.02,0 -0.04,-0.01 -0.07,-0.02" /></clipPath><radialGradient
       id="radialGradient5346"
       spreadMethod="pad"
       gradientTransform="matrix(357.42,-865.181,-865.181,-357.42,1105.41,3328.06)"
       gradientUnits="userSpaceOnUse"
       r="1"
       cy="0"
       cx="0"
       fy="0"
       fx="0"><stop
         id="stop5348"
         offset="0"
         style="stop-opacity:1;stop-color:#d12125" /><stop
         id="stop5350"
         offset="1"
         style="stop-opacity:1;stop-color:#a51c21" /></radialGradient><clipPath
       id="clipPath8357"
       clipPathUnits="userSpaceOnUse"><path
         inkscape:connector-curvature="0"
         id="path8359"
         d="m 5304.67,0 7500.03,0 0,5000 -7500.03,0 0,-5000 z" /></clipPath><clipPath
       id="clipPath8553"
       clipPathUnits="userSpaceOnUse"><path
         inkscape:connector-curvature="0"
         id="path8555"
         d="m 0,0 0,5000 5000,0 L 5000,0 0,0 Z" /></clipPath><clipPath
       id="clipPath8583"
       clipPathUnits="userSpaceOnUse"><path
         inkscape:connector-curvature="0"
         id="path8585"
         d="m 0,0 5000,0 0,5000 L 0,5000 0,0 Z" /></clipPath></defs><path
     inkscape:connector-curvature="0"
     id="path8711"
     style="fill:#f46d2a;fill-opacity:1;fill-rule:nonzero;stroke:none"
     d="m 508.1529,103.73791 c 30.21997,77.37478 -8.00763,164.59586 -85.38264,194.81606 -77.37478,30.21769 -164.5961,-8.01083 -194.81607,-85.38492 -30.21723,-77.37204 8.01038,-164.593591 85.38242,-194.813561 77.37752,-30.21997 164.59632,8.00764 194.81629,85.382421" /><path
     inkscape:connector-curvature="0"
     id="path8713"
     style="fill:#5c1b42;fill-opacity:1;fill-rule:nonzero;stroke:none"
     d="m 368.09056,308.90039 c -0.0229,0 -0.0366,0 -0.0571,0 0.0229,0 0.0388,0 0.0571,0 l 0,0 m 0.0228,0 c 17.90855,0 36.1141,-3.22727 53.81726,-10.02086 -17.70865,6.79701 -35.903,10.01857 -53.81726,10.02086 m 54.33701,-10.22053 c 0.10966,-0.0434 0.21475,-0.0823 0.32259,-0.12566 l 0,0 c -0.10738,0.0434 -0.21476,0.0823 -0.32259,0.12566 m 0.61685,-0.23989 c 0.0229,0 0.0548,-0.0229 0.0777,-0.032 -0.0274,0 -0.048,0.0228 -0.0777,0.032 m 0.33698,-0.13479 c 0,0 0.032,-0.0228 0.0388,-0.0228 -0.0228,0 -0.0274,0 -0.0388,0.0228 m 0.33402,-0.13251 c 0.0228,0 0.0457,-0.0228 0.0685,-0.0297 -0.0228,0 -0.0457,0.0228 -0.0685,0.0297 m 0.3171,-0.12794 c 0.0229,0 0.0366,-0.0228 0.0548,-0.0228 -0.0228,0 -0.0366,0.0228 -0.0548,0.0228 m 0.34841,-0.14165 c 0.0229,0 0.0366,-0.0228 0.0571,-0.0228 -0.0228,0 -0.0411,0.0228 -0.0571,0.0228 m 0.31985,-0.12794 c 0.0228,0 0.0274,0 0.0457,-0.0228 -0.0229,0 -0.032,0.0228 -0.0457,0.0228 m 0.34543,-0.14164 c 0.0229,0 0.0343,-0.0229 0.048,-0.0229 -0.0228,0 -0.032,0.0229 -0.048,0.0229 m 0.30866,-0.12566 c 0.0228,0 0.0343,-0.0229 0.0503,-0.0229 -0.0229,0 -0.0343,0.0229 -0.0503,0.0229 m 0.35686,-0.1485 c 0,-0.002 0.0228,-0.002 0.0228,0 0,0 -0.0228,0 -0.0228,0 m 0.30842,-0.12794 c 0.0229,0 0.032,0 0.0388,-0.0229 -0.0228,0 -0.0251,0 -0.0388,0.0229 m 0.66552,-0.28032 c 0,0 0,0 0.0228,0 0,0 0,0 -0.0228,0 m 0.66254,-0.27987 0,0 M 228.15684,213.67669 c -0.0663,-0.16906 -0.1348,-0.33698 -0.20105,-0.50833 l 0,0 c 0.0662,0.17135 0.13479,0.33973 0.20105,0.50833 m -0.30569,-0.77677 c 0,-0.032 -0.0228,-0.0571 -0.0343,-0.0891 0,0.0297 0.0251,0.0594 0.0343,0.0891 m -0.10737,-0.28284 c -0.0229,-0.0297 -0.0229,-0.0571 -0.032,-0.0845 0,0.0274 0.0229,0.0571 0.032,0.0845 m -0.1348,-0.34544 c 0,0 0,-0.0228 0,-0.0297 0,0 0,0.0228 0,0.0297 m -0.10509,-0.27987 c -0.0229,-0.032 -0.0229,-0.0594 -0.0343,-0.0914 0.0229,0.032 0.0229,0.0594 0.0343,0.0914 m -0.10509,-0.27712 c -0.0229,-0.032 -0.0229,-0.0617 -0.0343,-0.0937 0,0.0274 0.0228,0.0663 0.0343,0.0937 m -0.12794,-0.3427 c 0,-0.0228 -0.0229,-0.0365 -0.0229,-0.0548 0,0.0229 0.0229,0.0366 0.0229,0.0548 m -0.10967,-0.28832 c 0,-0.032 -0.0228,-0.0617 -0.0343,-0.0937 0,0.032 0.0228,0.064 0.0343,0.0937 m -0.10509,-0.28558 c 0,-0.0297 -0.0228,-0.0548 -0.032,-0.0822 0,0.0297 0.0228,0.0548 0.032,0.0822 m -0.13022,-0.35411 c 0,0 0,-0.0229 0,-0.0229 0,0 0,0 0,0.0229 m -0.10281,-0.27713 c 0,-0.0229 -0.0229,-0.0548 -0.0297,-0.08 0,0.0297 0.0229,0.0525 0.0297,0.08 m -0.10052,-0.27987 c -0.0229,-0.0297 -0.0229,-0.0548 -0.032,-0.0822 0,0.0297 0.0229,0.0548 0.032,0.0822 m -0.23121,-0.63672 c 0,-0.0229 -0.0229,-0.0388 -0.0229,-0.0594 0,0.0228 0.0229,0.0388 0.0229,0.0594 m -0.10509,-0.29426 c 0,-0.0228 -0.0229,-0.0366 -0.0229,-0.0525 0,0.0229 0.0229,0.0366 0.0229,0.0525 m -0.2239,-0.62828 c 0,0 0,-0.0228 0,-0.0343 0,0 0,0.0229 0,0.0343 m -0.10737,-0.30545 c 0,0 0,-0.0229 0,-0.0229 0,0 0,0.0229 0,0.0229 m -0.21476,-0.62257 0,0 0,0" /><path
     inkscape:connector-curvature="0"
     id="path8715"
     style="fill:#f25c24;fill-opacity:1;fill-rule:nonzero;stroke:none"
     d="m 368.09056,308.90039 c -0.0229,0 -0.0366,0 -0.0571,0 -37.02817,-0.0229 -72.77696,-13.79575 -100.201,-38.25297 40.02105,-12.64247 82.66074,-27.66689 126.53984,-44.80438 1.83068,-0.71394 3.66409,-1.43086 5.48609,-2.15052 0.21018,0 0.41968,0 0.62827,0 18.19435,0 36.70833,-3.32985 54.67993,-10.34664 21.2384,-8.29596 39.507,-20.90439 54.2342,-36.41407 2.80141,-1.29653 5.57176,-2.58735 8.33593,-3.88387 -0.80807,8.23038 -2.29308,16.34928 -4.41779,24.27421 -32.19344,17.33465 -69.65569,34.6549 -110.34202,50.54749 -40.69775,15.8919 -79.99068,28.54671 -115.41687,37.61921 5.18908,3.28096 10.56939,6.22288 16.10391,8.84175 33.0271,-10.92328 67.57645,-23.3583 102.94255,-37.16822 35.36337,-13.8106 69.19306,-28.08384 100.88365,-42.43704 0.81973,-2.02487 1.5965,-4.06962 2.32758,-6.12853 -13.55358,38.30757 -42.45989,70.93737 -82.4494,88.07211 l 0,0 c -0.21476,0.0914 -0.42837,0.18277 -0.64267,0.27119 0,0 0,0 -0.0229,0 -0.20561,0.0891 -0.41717,0.1782 -0.62553,0.2657 0,0 -0.0274,0 -0.0388,0.0229 -0.0937,0.0388 -0.19191,0.08 -0.28832,0.12108 0,0 -0.0228,0 -0.0228,0 -0.10053,0.0434 -0.20562,0.0868 -0.30569,0.12566 -0.0228,0 -0.032,0.0229 -0.0503,0.0229 -0.0891,0.0366 -0.17135,0.0708 -0.25976,0.10509 -0.0229,0 -0.0343,0.0228 -0.048,0.0228 -0.10052,0.0411 -0.20105,0.0823 -0.29974,0.12338 -0.0229,0 -0.0297,0 -0.0457,0.0228 -0.0891,0.0343 -0.17363,0.0685 -0.26273,0.10509 -0.0228,0 -0.0411,0.0229 -0.0571,0.0229 -0.10053,0.0411 -0.1942,0.0777 -0.29426,0.11652 -0.0229,0 -0.0343,0.0228 -0.0548,0.0228 -0.0822,0.0343 -0.16449,0.064 -0.24856,0.0982 -0.0229,0 -0.0457,0.0229 -0.0685,0.0297 -0.096,0.0366 -0.19648,0.0777 -0.29403,0.11423 0,0 -0.032,0.0228 -0.0388,0.0228 -0.0891,0.0343 -0.17364,0.0685 -0.25999,0.10281 -0.0229,0 -0.0548,0.0229 -0.0777,0.032 -0.0982,0.0366 -0.19648,0.0777 -0.29426,0.11424 l 0,0 c -0.10738,0.0434 -0.21476,0.0822 -0.32259,0.12565 -0.16907,0.0662 -0.35138,0.13479 -0.51976,0.19876 -17.70315,6.79359 -35.9087,10.0156 -53.81748,10.02086 0,0 -0.0228,0 -0.0228,0 M 256.00331,258.85164 c -11.58583,-12.92531 -21.11275,-28.08956 -27.85515,-45.17563 -0.0663,-0.16907 -0.1348,-0.33699 -0.20105,-0.50833 l 0,0 c -0.0343,-0.0891 -0.0708,-0.18049 -0.10509,-0.26845 0,-0.0297 -0.0229,-0.0594 -0.0343,-0.0891 -0.0229,-0.0617 -0.048,-0.13251 -0.0754,-0.19419 -0.0228,-0.0297 -0.0228,-0.0571 -0.032,-0.0845 -0.0343,-0.0891 -0.0685,-0.17134 -0.10281,-0.25976 0,0 0,-0.0228 0,-0.0297 -0.032,-0.0822 -0.0663,-0.16906 -0.0982,-0.25131 -0.0229,-0.032 -0.0229,-0.0594 -0.0343,-0.0914 -0.0251,-0.0663 -0.0457,-0.12337 -0.0708,-0.18506 -0.0229,-0.0297 -0.0251,-0.0663 -0.0343,-0.0937 -0.032,-0.0822 -0.0617,-0.16678 -0.0937,-0.24857 0,-0.0228 -0.0229,-0.0365 -0.0229,-0.0548 -0.0297,-0.0777 -0.0594,-0.15764 -0.0891,-0.23417 0,-0.032 -0.0229,-0.0617 -0.0343,-0.0937 -0.0251,-0.0617 -0.048,-0.12794 -0.0708,-0.19191 0,-0.0297 -0.0229,-0.0548 -0.032,-0.0823 -0.0343,-0.0914 -0.0662,-0.18048 -0.10052,-0.27118 0,0 0,-0.0229 0,-0.0229 -0.0343,-0.0891 -0.0617,-0.17135 -0.0982,-0.25999 0,-0.0297 -0.0229,-0.0525 -0.0297,-0.08 -0.0251,-0.0685 -0.048,-0.13023 -0.0708,-0.19877 -0.0229,-0.0297 -0.0229,-0.0548 -0.032,-0.0822 -0.0685,-0.18277 -0.13479,-0.37126 -0.20105,-0.55403 0,-0.0228 -0.0228,-0.0434 -0.0228,-0.0594 -0.0297,-0.08 -0.0548,-0.15764 -0.0822,-0.23417 0,-0.0229 -0.0229,-0.0366 -0.0229,-0.0525 -0.0685,-0.19419 -0.13707,-0.38542 -0.20333,-0.57687 0,0 0,-0.0228 0,-0.0343 -0.0343,-0.0914 -0.064,-0.18048 -0.0982,-0.27118 0,0 0,-0.0229 0,-0.0229 -0.0708,-0.20105 -0.13936,-0.40255 -0.2079,-0.60246 l 0,0 c -5.33461,-15.46696 -7.9905,-31.25102 -8.20183,-46.83793 0.0229,0 0.0366,-0.0228 0.0571,-0.032 -0.0777,-5.59461 0.16906,-11.1634 0.7112,-16.68079 -0.0228,0 -0.0434,0.0229 -0.0594,0.0251 2.84437,-28.83777 14.00206,-56.307731 31.94487,-78.945471 -1.17087,20.8644 1.96776,42.299971 10.06678,63.035741 20.14177,51.57283 65.60321,85.75367 116.60191,93.86709 -43.25951,16.24647 -84.59422,28.73496 -120.94271,37.01949 m 9.36973,-68.47317 c -0.85674,0 -1.69063,0.15079 -2.48454,0.45967 -5.89435,2.30177 -7.37639,12.60843 -3.30974,23.01767 3.51833,9.00716 10.03524,15.1414 15.54692,15.1414 0.85673,0 1.69062,-0.1485 2.48728,-0.45693 5.89161,-2.30176 7.37365,-12.6082 3.307,-23.01767 -3.51833,-9.0099 -10.03525,-15.14414 -15.54692,-15.14414" /><path
     inkscape:connector-curvature="0"
     id="path8717"
     style="fill:#f9a87f;fill-opacity:0.52307695;fill-rule:nonzero;stroke:none"
     d="m 468.20017,46.288089 c 4.13815,3.69242 8.09057,7.61925 11.82594,11.78573 73.01387,-16.65497 125.9376,-16.38926 134.02223,4.30653 12.53121,32.08766 -87.44726,101.109371 -223.30566,154.169951 -135.85839,53.05738 -256.15295,70.06053 -268.68416,37.9763 -8.08166,-20.69603 30.65702,-56.75894 95.62899,-93.99548 -0.0777,-5.59461 0.16906,-11.1634 0.71121,-16.68078 C 80.811775,208.39691 -10.432776,272.65767 0.95794278,301.82351 15.493458,339.04017 191.63128,305.02519 394.37228,225.84304 597.11351,146.6634 749.68398,52.302379 735.14801,15.085729 723.75935,-14.083541 613.11164,0.50405892 468.20017,46.288089" /><path
     inkscape:connector-curvature="0"
     id="path8719"
     style="fill:#f25c24;fill-opacity:1;fill-rule:nonzero;stroke:none"
     d="m 509.81771,208.59978 c 1.31367,-3.70978 2.48157,-7.468 3.5012,-11.27466 0,0 0.0229,0 0.0229,0 -1.02238,3.80963 -2.20193,7.57082 -3.52131,11.28334" /><path
     inkscape:connector-curvature="0"
     id="path8721"
     style="fill:#f14d1d;fill-opacity:1;fill-rule:nonzero;stroke:none"
     d="m 303.66393,294.33357 c -5.53452,-2.61887 -10.91483,-5.56079 -16.10369,-8.84175 35.42597,-9.0725 74.7189,-21.72731 115.41665,-37.61921 40.68633,-15.89259 78.14858,-33.21284 110.34202,-50.54749 -1.01963,3.80666 -2.18753,7.56488 -3.5012,11.27466 -0.73108,2.05891 -1.50785,4.10366 -2.32758,6.12853 -31.69059,14.3532 -65.52028,28.62644 -100.88365,42.43704 -35.3661,13.80992 -69.91545,26.24494 -102.94255,37.16822" /><path
     inkscape:connector-curvature="0"
     id="path8723"
     style="fill:#f25c24;fill-opacity:1;fill-rule:nonzero;stroke:none"
     d="m 312.12004,123.29436 c -10.2925,0 -20.01064,-6.21694 -23.98019,-16.38081 -5.16898,-13.239451 1.37078,-28.163811 14.61023,-33.335531 3.07557,-1.19943 6.24275,-1.76785 9.35557,-1.76785 10.29226,0 20.00766,6.2142 23.98018,16.37807 5.16875,13.242191 -1.37101,28.163811 -14.61022,33.335531 -3.0758,1.2024 -6.24276,1.77059 -9.35557,1.77059" /><path
     inkscape:connector-curvature="0"
     id="path8725"
     style="fill:#f25c24;fill-opacity:1;fill-rule:nonzero;stroke:none"
     d="m 456.26593,125.82756 c -4.56926,0 -9.72111,-4.52083 -12.36283,-11.28037 -3.10412,-7.94778 -1.55058,-15.983971 3.46716,-17.943051 0.75393,-0.29403 1.54213,-0.43408 2.34746,-0.43408 4.56927,0 9.72385,4.520831 12.3626,11.280371 3.1071,7.94778 1.55355,15.98398 -3.46693,17.94305 -0.75118,0.29403 -1.53915,0.43408 -2.34746,0.43408" /><path
     inkscape:connector-curvature="0"
     id="path8727"
     style="fill:#f25c24;fill-opacity:1;fill-rule:nonzero;stroke:none"
     d="m 425.12069,51.628419 c -2.72146,0 -5.68874,-0.8853 -8.37318,-2.68444 -5.90303,-3.95813 -8.21896,-10.84927 -5.17172,-15.39271 1.6591,-2.47609 4.56926,-3.74109 7.83035,-3.74109 2.72168,0 5.68599,0.88233 8.37043,2.68147 5.90303,3.95813 8.21897,10.84926 5.17469,15.39271 -1.66207,2.47609 -4.57223,3.74406 -7.83057,3.74406" /><path
     inkscape:connector-curvature="0"
     id="path8729"
     style="fill:#f25c24;fill-opacity:1;fill-rule:nonzero;stroke:none"
     d="m 349.16238,211.76674 c -7.0225,0 -14.56156,-6.10842 -18.20281,-15.43269 -4.37781,-11.20886 -1.46513,-22.82051 6.5112,-25.93629 1.34223,-0.52249 2.74156,-0.7738 4.16078,-0.7738 7.02524,0 14.56453,6.10842 18.20303,15.43269 4.37781,11.20886 1.46491,22.8205 -6.51143,25.93628 -1.34199,0.5225 -2.74156,0.77381 -4.16077,0.77381" /><path
     inkscape:connector-curvature="0"
     id="path8731"
     style="fill:#f14d1d;fill-opacity:1;fill-rule:nonzero;stroke:none"
     d="m 275.13184,228.99858 c -5.5119,0 -12.02881,-6.13424 -15.54715,-15.1414 -4.06664,-10.40924 -2.58437,-20.71591 3.30998,-23.01767 0.79391,-0.30843 1.6278,-0.45967 2.48454,-0.45967 5.51167,0 12.02859,6.13424 15.54692,15.14414 4.06664,10.40947 2.5846,20.7159 -3.30701,23.01767 -0.79665,0.30843 -1.63054,0.45693 -2.48728,0.45693" /><path
     inkscape:connector-curvature="0"
     id="path8733"
     style="fill:#f25c24;fill-opacity:1;fill-rule:nonzero;stroke:none"
     d="m 446.97022,177.58019 c -2.92707,0 -5.69147,-1.76785 -6.8194,-4.65791 -1.47084,-3.76667 0.39113,-8.01038 4.15507,-9.48122 0.87387,-0.3427 1.7763,-0.50262 2.66159,-0.50262 2.9273,0 5.68874,1.76785 6.81963,4.65791 1.47085,3.76667 -0.39136,8.01037 -4.15529,9.48122 -0.87387,0.34269 -1.7763,0.50262 -2.6616,0.50262" /></svg>