<?xml version="1.0" encoding="UTF-8" standalone="no"?>
<svg
   xmlns:dc="http://purl.org/dc/elements/1.1/"
   xmlns:cc="http://creativecommons.org/ns#"
   xmlns:rdf="http://www.w3.org/1999/02/22-rdf-syntax-ns#"
   xmlns:svg="http://www.w3.org/2000/svg"
   xmlns="http://www.w3.org/2000/svg"
   xmlns:sodipodi="http://sodipodi.sourceforge.net/DTD/sodipodi-0.dtd"
   xmlns:inkscape="http://www.inkscape.org/namespaces/inkscape"
   version="1.1"
   x="0px"
   y="0px"
   width="157.4px"
   height="117.3px"
   viewBox="0 0 157.4 117.3"
   style="enable-background:new 0 0 157.4 117.3;"
   xml:space="preserve"
   id="svg7420"
   inkscape:version="0.91 r13725"
   sodipodi:docname="satelite.svg"><metadata
     id="metadata7578"><rdf:RDF><cc:Work
         rdf:about=""><dc:format>image/svg+xml</dc:format><dc:type
           rdf:resource="http://purl.org/dc/dcmitype/StillImage" /><dc:title></dc:title></cc:Work></rdf:RDF></metadata><sodipodi:namedview
     pagecolor="#ffffff"
     bordercolor="#666666"
     borderopacity="1"
     objecttolerance="10"
     gridtolerance="10"
     guidetolerance="10"
     inkscape:pageopacity="0"
     inkscape:pageshadow="2"
     inkscape:window-width="1920"
     inkscape:window-height="1028"
     id="namedview7576"
     showgrid="false"
     inkscape:zoom="1"
     inkscape:cx="65.901947"
     inkscape:cy="62.116353"
     inkscape:window-x="0"
     inkscape:window-y="0"
     inkscape:window-maximized="1"
     inkscape:current-layer="svg7420" /><style
     type="text/css"
     id="style7422">
	.st0{fill:#57524F;}
	.st1{fill:#443E3F;}
	.st2{fill:none;stroke:#FFFFFF;stroke-linecap:round;stroke-linejoin:round;stroke-miterlimit:10;}
	.st3{fill:#557CE0;}
	.st4{fill:#A39A9C;}
	.st5{fill:#5A81E6;}
	.st6{fill:#FFFFFF;}
	.st7{fill:#9B9AA1;}
	.st8{fill:#B2AFAD;}
	.st9{fill:#B2AFA2;}
	.st10{fill:#544E4A;}
	.st11{fill:#67635F;}
</style><defs
     id="defs7424" /><g
     id="g7426"><g
       id="g7428"><path
         class="st0"
         d="M102.6,103.4L102.6,103.4l-7.3,4.4c-7.3-1.1-12.9-7.3-12.9-14.9c0-0.8,0.1-1.7,0.2-2.5c1.9,0,3.8-0.5,5.6-1.4    c0.3-0.2,0.6-0.3,1-0.5l2.8-1.7c0,0,0,0,0,0C92.4,87,103.6,90.6,102.6,103.4z"
         id="path7430" /><path
         class="st0"
         d="M95.3,108.3l-0.2,0c-7.6-1.1-13.3-7.7-13.3-15.4c0-0.8,0.1-1.7,0.2-2.5l0.1-0.4l0.4,0c1.9,0,3.7-0.5,5.4-1.3    c0.3-0.2,0.6-0.3,0.9-0.5l2.9-1.8l0.3,0c0.5,0.2,12,4,11,17v0.3L95.3,108.3z M83,90.9c-0.1,0.7-0.1,1.3-0.1,2    c0,7.1,5.3,13.3,12.3,14.4l6.9-4.2c0.8-11.3-8.5-15.2-10.1-15.7L89.4,89c-0.3,0.2-0.7,0.4-1,0.6C86.7,90.4,84.9,90.8,83,90.9z"
         id="path7432" /></g><g
       id="g7434"><path
         class="st1"
         d="M112.5,92.9c0,1.7-0.3,3.4-0.8,5l-9.1,5.5c1-12.8-10.2-16.4-10.6-16.6l7.8-4.7c1.4-0.8,2.6-1.9,3.5-3.1    C108.7,81.2,112.5,86.6,112.5,92.9z"
         id="path7436" /><path
         class="st1"
         d="M102,104.3l0.1-1c1-12.3-9.8-15.9-10.3-16l-1-0.3l8.7-5.3c1.3-0.8,2.4-1.8,3.4-3l0.2-0.3l0.4,0.1    c5.8,2.4,9.6,8.1,9.6,14.4c0,1.8-0.3,3.5-0.9,5.1l-0.1,0.2L102,104.3z M93.1,86.7c2.8,1.2,10.4,5.4,10,15.7l8.1-4.9    c0.5-1.5,0.8-3,0.8-4.6c0-5.8-3.4-11-8.6-13.3c-1,1.2-2.1,2.1-3.4,2.9L93.1,86.7z"
         id="path7438" /></g><g
       id="g7440"><path
         class="st2"
         d="M79.5,2.2"
         id="path7442" /></g><g
       id="g7444"><path
         class="st3"
         d="M55.7,16l-5.2-8.6c0.6-0.8,0.9-1.7,0.9-2.8c0-2.6-2.1-4.7-4.7-4.7s-4.7,2.1-4.7,4.7s2.1,4.7,4.7,4.7    c0.2,0,0.3,0,0.5,0l5.2,8.7L55.7,16z"
         id="path7446" /></g><g
       id="g7448"><path
         class="st2"
         d="M79.5,2.2"
         id="path7450" /></g><g
       id="g7452"><path
         class="st4"
         d="M91.2,42.9l-11.4,6.5c-3.6-6.4-7.1-12.4-9.4-16.4c-1.7-2.9-2.7-4.6-2.7-4.6c2.5-4.8,0.1-19,0-19.5    c0,0,0,0,0,0l11.8-6.7c0.7,2.5,1,5.2,1,8c0,4.2-0.8,8.2-2.4,11.8l0.3-0.2L91.2,42.9z"
         id="path7454" /><path
         class="st4"
         d="M79.6,50.1l-0.2-0.4c-3.6-6.3-7.1-12.4-9.4-16.4c-1.7-2.9-2.7-4.6-2.7-4.6l-0.1-0.2l0.1-0.2    c2.4-4.6,0.1-18.5-0.1-19.1V8.8l0.2-0.2l12.4-7.1L80,2.1c0.7,2.6,1.1,5.3,1.1,8.1c0,3.9-0.7,7.8-2.1,11.4l13,21.5L79.6,50.1z     M68.2,28.4c0.3,0.6,1.3,2.1,2.6,4.4c2.3,3.9,5.7,9.8,9.2,15.9l10.5-6L78.3,22.6l-1.2,0.7l0.6-1.4c1.5-3.7,2.3-7.6,2.3-11.6    c0-2.4-0.3-4.9-0.9-7.2l-11,6.2C68.6,11.6,70.4,23.6,68.2,28.4z"
         id="path7456" /></g><g
       id="g7458"><path
         class="st5"
         d="M2.9,97.4c-0.2,0-0.3-0.1-0.4-0.3c-0.1-0.2-0.1-0.5,0.2-0.7l56-32.2c0.2-0.1,0.5-0.1,0.7,0.2    c0.1,0.2,0.1,0.5-0.2,0.7l-56,32.2C3.1,97.4,3,97.4,2.9,97.4z"
         id="path7460" /></g><g
       id="g7462"><path
         class="st5"
         d="M7.7,105c-0.2,0-0.3-0.1-0.4-0.3c-0.1-0.2-0.1-0.5,0.2-0.7l56-32.2c0.2-0.1,0.5-0.1,0.7,0.2    c0.1,0.2,0.1,0.5-0.2,0.7l-56,32.2C7.9,105,7.8,105,7.7,105z"
         id="path7464" /></g><g
       id="g7466"><path
         class="st5"
         d="M22,110.9c-0.2,0-0.3-0.1-0.4-0.3L6.5,84.4c-0.1-0.2-0.1-0.5,0.2-0.7c0.2-0.1,0.5-0.1,0.7,0.2l15.1,26.3    c0.1,0.2,0.1,0.5-0.2,0.7C22.2,110.9,22.1,110.9,22,110.9z"
         id="path7468" /></g><g
       id="g7470"><path
         class="st5"
         d="M29.9,106c-0.2,0-0.3-0.1-0.4-0.3L14.4,79.5c-0.1-0.2-0.1-0.5,0.2-0.7c0.2-0.1,0.5-0.1,0.7,0.2l15.1,26.3    c0.1,0.2,0.1,0.5-0.2,0.7C30.1,106,30,106,29.9,106z"
         id="path7472" /></g><g
       id="g7474"><path
         class="st5"
         d="M53.8,90.9c-0.2,0-0.3-0.1-0.4-0.3L38.6,64.9c-0.1-0.2-0.1-0.5,0.2-0.7c0.2-0.1,0.5-0.1,0.7,0.2l14.8,25.7    c0.1,0.2,0.1,0.5-0.2,0.7C54,90.9,53.9,90.9,53.8,90.9z"
         id="path7476" /></g><g
       id="g7478"><path
         class="st5"
         d="M60.1,87.3c-0.2,0-0.3-0.1-0.4-0.3L45.1,61.6c-0.1-0.2-0.1-0.5,0.2-0.7c0.2-0.1,0.5-0.1,0.7,0.2l14.6,25.4    c0.1,0.2,0.1,0.5-0.2,0.7C60.3,87.3,60.2,87.3,60.1,87.3z"
         id="path7480" /></g><g
       id="g7482"><path
         class="st5"
         d="M45.3,96.2c-0.2,0-0.3-0.1-0.4-0.3L30.1,70.1c-0.1-0.2-0.1-0.5,0.2-0.7c0.2-0.1,0.5-0.1,0.7,0.2l14.8,25.8    c0.1,0.2,0.1,0.5-0.2,0.7C45.5,96.2,45.4,96.2,45.3,96.2z"
         id="path7484" /></g><g
       id="g7486"><path
         class="st5"
         d="M37.5,101.5c-0.2,0-0.3-0.1-0.4-0.3L22,75c-0.1-0.2-0.1-0.5,0.2-0.7c0.2-0.1,0.5-0.1,0.7,0.2l15.1,26.3    c0.1,0.2,0.1,0.5-0.2,0.7C37.6,101.5,37.6,101.5,37.5,101.5z"
         id="path7488" /></g><g
       id="g7490"><rect
         x="126.1"
         y="5"
         transform="matrix(0.4985 0.8669 -0.8669 0.4985 95.7952 -91.0155)"
         class="st5"
         width="1"
         height="64.6"
         id="rect7492" /></g><g
       id="g7494"><path
         class="st5"
         d="M93.8,46.4c-0.2,0-0.3-0.1-0.4-0.3c-0.1-0.2-0.1-0.5,0.2-0.7l56-32.2c0.2-0.1,0.5-0.1,0.7,0.2    c0.1,0.2,0.1,0.5-0.2,0.7L94,46.3C93.9,46.3,93.9,46.4,93.8,46.4z"
         id="path7496" /></g><g
       id="g7498"><rect
         x="127.8"
         y="20.4"
         transform="matrix(0.4976 0.8674 -0.8674 0.4976 89.8969 -113.5026)"
         class="st5"
         width="30.3"
         height="1"
         id="rect7500" /></g><g
       id="g7502"><rect
         x="119.9"
         y="25.2"
         transform="matrix(0.4976 0.8674 -0.8674 0.4976 90.1646 -104.1766)"
         class="st5"
         width="30.3"
         height="1"
         id="rect7504" /></g><g
       id="g7506"><rect
         x="96.2"
         y="40.1"
         transform="matrix(0.4976 0.8674 -0.8674 0.4976 90.9543 -75.9171)"
         class="st5"
         width="29.7"
         height="1"
         id="rect7508" /></g><g
       id="g7510"><rect
         x="89.9"
         y="43.5"
         transform="matrix(0.4976 0.8674 -0.8674 0.4976 90.7041 -68.6091)"
         class="st5"
         width="29.3"
         height="1"
         id="rect7512" /></g><g
       id="g7514"><rect
         x="104.6"
         y="34.8"
         transform="matrix(0.4976 0.8674 -0.8674 0.4976 90.6975 -85.9275)"
         class="st5"
         width="29.8"
         height="1"
         id="rect7516" /></g><g
       id="g7518"><rect
         x="112.4"
         y="29.7"
         transform="matrix(0.4976 0.8674 -0.8674 0.4976 90.2474 -95.4093)"
         class="st5"
         width="30.3"
         height="1"
         id="rect7520" /></g><g
       id="g7522"><path
         class="st6"
         d="M91.2,43.4c-0.2,0-0.3-0.1-0.4-0.3c-0.1-0.2-0.1-0.5,0.2-0.7l0.6-0.4c0.2-0.1,0.5-0.1,0.7,0.2    c0.1,0.2,0.1,0.5-0.2,0.7l-0.6,0.4C91.4,43.4,91.3,43.4,91.2,43.4z"
         id="path7524" /></g><g
       id="g7526"><path
         class="st6"
         d="M57.2,62.6c-0.2,0-0.3-0.1-0.4-0.3c-0.1-0.2,0-0.5,0.2-0.7l0.4-0.2c0.2-0.1,0.5,0,0.7,0.2    c0.1,0.2,0,0.5-0.2,0.7l-0.4,0.2C57.4,62.5,57.3,62.6,57.2,62.6z"
         id="path7528" /></g><g
       id="g7530"><rect
         x="106"
         y="110.3"
         transform="matrix(0.5187 0.855 -0.855 0.5187 148.5602 -39.4363)"
         class="st3"
         width="6.7"
         height="3.7"
         id="rect7532" /></g><g
       id="g7534"><polygon
         class="st6"
         points="104.8,111 104.8,111 105.8,111   "
         id="polygon7536" /></g><g
       id="g7538"><path
         class="st7"
         d="M105.3,111c0.4-1.9,0-3.6-0.7-4.8c-0.9-1.7-2.1-2.8-2.1-2.8v0l9.1-5.5l2.9-1.7l4.1,6.8L105.3,111z"
         id="path7540" /><path
         class="st7"
         d="M104.6,112l0.3-1.1c0.3-1.5,0.1-3-0.6-4.5c-0.8-1.6-2-2.6-2-2.6l-0.2-0.1v-0.5l0.2-0.2l12.4-7.5l4.6,7.6    L104.6,112z M103.4,103.5c0.5,0.5,1.2,1.3,1.7,2.4c0.7,1.3,1,2.7,0.9,4.1l12-7.3l-3.6-5.9L103.4,103.5z"
         id="path7542" /></g><g
       id="g7544"><path
         class="st8"
         d="M105.3,111l-9.2,5.6l-4.1-6.8l3.2-2l7.3-4.4c0,0,1.2,1,2.1,2.8C105.3,107.4,105.8,109.1,105.3,111z"
         id="path7546" /><path
         class="st8"
         d="M96,117.3l-4.6-7.7l11.3-6.8l0.3,0.2c0.1,0,1.3,1.1,2.2,2.9c0.9,1.7,1.1,3.5,0.7,5.2l0,0.2L96,117.3z     M92.7,109.9l3.6,5.9l8.6-5.2c0.3-1.4,0-2.9-0.7-4.3c-0.6-1.1-1.3-2-1.7-2.4L92.7,109.9z"
         id="path7548" /></g><g
       id="g7550"><path
         class="st9"
         d="M79.8,49.4L57.7,61.8l-12.1-20l0.3,0.3c-7.6-0.7-13.2-5.2-18.2-10.4L67.7,9c0.1,0.5,2.5,14.7,0,19.5    c0,0,1.1,1.8,2.7,4.6C72.7,37,76.2,43.1,79.8,49.4z"
         id="path7552" /><path
         class="st9"
         d="M57.5,62.5L45.4,42.6c-7.7-0.8-13.3-5.5-18.1-10.5l-0.5-0.5L68,8.2l0.1,0.7c0.3,1.5,2.4,14.5,0.1,19.5    c0.3,0.6,1.3,2.1,2.6,4.4c2.3,4,5.9,10.1,9.4,16.4l0.2,0.4L57.5,62.5z M46.7,42.7l11.2,18.4l21.3-11.9c-3.5-6.2-6.9-12-9.2-15.9    c-1.7-2.9-2.7-4.6-2.7-4.6l-0.1-0.2l0.1-0.2c2.1-4.1,0.5-15.4,0.1-18.4L28.5,31.9c4.5,4.5,9.5,8.7,16.3,9.6l-1.8-3l4.2,4.2    L46.7,42.7z"
         id="path7554" /></g><g
       id="g7556"><path
         class="st10"
         d="M103.2,79c-0.9,1.2-2.1,2.3-3.5,3.1l-7.8,4.7c0,0,0,0,0,0l-2.8,1.7c-0.3,0.2-0.6,0.4-1,0.5    c4.5-2.9,5.4-7.1,5.2-10.7c-0.1-2.1-0.7-4-1.3-5.4c-2.1-5.3-7.2-14.7-12.2-23.5l11.4-6.5l12.9,21.2C107,69,106.5,74.8,103.2,79z"
         id="path7558" /><path
         class="st10"
         d="M88.4,89.5l-0.5-0.9c3.6-2.4,5.3-5.8,4.9-10.2c-0.2-2.2-0.8-4.1-1.3-5.3c-1.8-4.3-5.8-12.2-12.1-23.5    l-0.2-0.4l12.2-7l13.1,21.7c2.9,4.8,2.5,11-0.9,15.4c-1,1.3-2.2,2.4-3.6,3.2L89.4,89C89,89.2,88.7,89.4,88.4,89.5z M80.5,49.6    c6.2,11,10.2,18.8,12,23.2c0.5,1.3,1.2,3.3,1.3,5.6c0.2,2.3-0.1,5.3-2,8l0,0l7.7-4.7c1.3-0.8,2.4-1.8,3.4-3l0,0    c3.2-4.1,3.5-9.8,0.8-14.2L91.1,43.6L80.5,49.6z"
         id="path7560" /></g><g
       id="g7562"><path
         class="st11"
         d="M88.1,89.1c-1.8,0.9-3.7,1.3-5.6,1.4c-4.5,0.1-8.8-2.2-11.3-6.3L57.7,61.8l22.2-12.4    c5,8.8,10,18.3,12.2,23.5c0.6,1.4,1.2,3.3,1.3,5.4C93.6,82,92.6,86.2,88.1,89.1z"
         id="path7564" /><path
         class="st11"
         d="M82.4,90.9c-4.7,0-9.1-2.5-11.6-6.5L57,61.6L80,48.8l0.2,0.4c6.3,11.3,10.4,19.2,12.2,23.6    c0.5,1.3,1.2,3.3,1.3,5.6c0.3,3.3-0.5,7.9-5.4,11.1l-0.1,0c-1.8,0.9-3.8,1.4-5.8,1.4C82.5,90.9,82.4,90.9,82.4,90.9z M58.4,62    l13.3,21.9c2.3,3.8,6.5,6.1,10.9,6c1.9,0,3.7-0.5,5.4-1.3c3.6-2.4,5.3-5.8,4.9-10.2c-0.2-2.2-0.8-4.1-1.3-5.3    c-1.7-4.3-5.7-12-11.9-23L58.4,62z"
         id="path7566" /></g><g
       id="g7568"><path
         class="st5"
         d="M16,113.5c-2.2,0-4.3-1.1-5.5-3.1L0.9,94.7c-0.9-1.5-1.2-3.2-0.8-4.8s1.4-3.1,2.9-3.9l45.1-27.5    c3-1.8,6.9-0.9,8.8,2.1l0,0l9.6,15.8c1.8,3,0.9,6.9-2.1,8.8l-45.1,27.5C18.3,113.2,17.1,113.5,16,113.5z M51.5,58.5    c-1,0-1.9,0.3-2.8,0.8L3.6,86.8c-1.2,0.7-2.1,1.9-2.4,3.3C0.8,91.5,1,93,1.8,94.2l9.6,15.8c1.5,2.5,4.9,3.3,7.4,1.8l45.1-27.5    c2.5-1.5,3.3-4.9,1.8-7.4l-9.6-15.8C55.1,59.4,53.3,58.5,51.5,58.5z"
         id="path7570" /></g><g
       id="g7572"><path
         class="st5"
         d="M106,60.6c-0.5,0-1-0.1-1.5-0.2c-1.7-0.4-3.1-1.4-3.9-2.9l-9.6-15.8c-1.8-3-0.9-6.9,2.1-8.8l45.1-27.5    c3-1.8,6.9-0.9,8.8,2.1l9.6,15.8c0.9,1.5,1.2,3.2,0.8,4.8c-0.4,1.7-1.4,3.1-2.9,3.9l-45.1,27.5C108.3,60.3,107.1,60.6,106,60.6z     M141.4,5.6c-1,0-1.9,0.3-2.8,0.8L93.5,33.8c-2.5,1.5-3.3,4.9-1.8,7.4l9.6,15.8l0,0c0.7,1.2,1.9,2.1,3.3,2.4    c1.4,0.3,2.8,0.1,4.1-0.6l45.1-27.5c1.2-0.7,2.1-1.9,2.4-3.3c0.3-1.4,0.1-2.8-0.6-4.1L146,8.2C145,6.5,143.2,5.6,141.4,5.6z"
         id="path7574" /></g></g></svg>